<svg width="60" height="60" viewBox="0 0 60 60" fill="none" xmlns="http://www.w3.org/2000/svg">
<g clip-path="url(#clip0_266_295)">
<path d="M30 6C13.6199 6 2.9997e-06 16.5468 2.9997e-06 30V30.006C0.00635349 31.5028 0.18695 32.9978 0.539065 34.465C0.58834 34.6702 0.680365 34.8627 0.809128 35.03C0.93789 35.1972 1.10049 35.3354 1.2863 35.4355C1.47212 35.5356 1.67696 35.5953 1.88745 35.6108C2.09794 35.6264 2.30933 35.5973 2.50782 35.5255C3.00876 35.3454 3.51162 35.1819 4.02539 35.0392C13.7651 32.4308 23.1851 36.9948 25.2949 44.8712C25.8947 47.1314 25.8493 49.5295 25.1543 51.8966C25.0921 52.1082 25.0773 52.3308 25.1109 52.5487C25.1445 52.7666 25.2258 52.9744 25.3489 53.1573C25.4719 53.3402 25.6338 53.4938 25.823 53.607C26.0122 53.7203 26.224 53.7904 26.4434 53.8125C27.6199 53.9314 28.8026 53.9929 29.9883 54H30C46.3801 54 60 43.4532 60 30C60 16.5468 46.3801 6 30 6ZM30 9C45.1001 9 57 18.6004 57 30C57 41.3965 45.106 50.9948 30.0117 51C29.3633 50.9961 28.7183 50.9348 28.0723 50.8945C28.4706 48.6152 28.7746 46.303 28.1895 44.0977C25.5848 34.3739 14.3248 29.188 3.26367 32.1445C3.16488 31.4274 3.00306 30.7155 3 29.9941C3.00404 18.5971 14.9024 9 30 9ZM28.5 12C26.0325 12 24 14.0325 24 16.5C24 18.9675 26.0325 21 28.5 21C30.9675 21 33 18.9675 33 16.5C33 14.0325 30.9675 12 28.5 12ZM16.5 15C14.0325 15 12 17.0325 12 19.5C12 21.9675 14.0325 24 16.5 24C18.9675 24 21 21.9675 21 19.5C21 17.0325 18.9675 15 16.5 15ZM28.5 15C29.3462 15 30 15.6538 30 16.5C30 17.3462 29.3462 18 28.5 18C27.6538 18 27 17.3462 27 16.5C27 15.6538 27.6538 15 28.5 15ZM40.5 15C38.0325 15 36 17.0325 36 19.5C36 21.9675 38.0325 24 40.5 24C42.9675 24 45 21.9675 45 19.5C45 17.0325 42.9675 15 40.5 15ZM16.5 18C17.3462 18 18 18.6538 18 19.5C18 20.3462 17.3462 21 16.5 21C15.6538 21 15 20.3462 15 19.5C15 18.6538 15.6538 18 16.5 18ZM40.5 18C41.3462 18 42 18.6538 42 19.5C42 20.3462 41.3462 21 40.5 21C39.6538 21 39 20.3462 39 19.5C39 18.6538 39.6538 18 40.5 18ZM49.5 24C47.0325 24 45 26.0325 45 28.5C45 30.9675 47.0325 33 49.5 33C51.9675 33 54 30.9675 54 28.5C54 26.0325 51.9675 24 49.5 24ZM49.5 27C50.3462 27 51 27.6538 51 28.5C51 29.3462 50.3462 30 49.5 30C48.6538 30 48 29.3462 48 28.5C48 27.6538 48.6538 27 49.5 27ZM40.5 36C38.0325 36 36 38.0325 36 40.5C36 42.9675 38.0325 45 40.5 45C42.9675 45 45 42.9675 45 40.5C45 38.0325 42.9675 36 40.5 36ZM40.5 39C41.3462 39 42 39.6538 42 40.5C42 41.3462 41.3462 42 40.5 42C39.6538 42 39 41.3462 39 40.5C39 39.6538 39.6538 39 40.5 39Z" fill="#222222"/>
</g>
<defs>
<clipPath id="clip0_266_295">
<rect width="60" height="60" fill="white"/>
</clipPath>
</defs>
</svg>
