<svg width="36" height="60" viewBox="0 0 36 60" fill="none" xmlns="http://www.w3.org/2000/svg">
<g clip-path="url(#clip0_130_349)">
<mask id="mask0_130_349" style="mask-type:luminance" maskUnits="userSpaceOnUse" x="-18" y="-5" width="70" height="70">
<path d="M-17.1431 -4.28554H51.4286V64.2861H-17.1431V-4.28554Z" fill="white"/>
</mask>
<g mask="url(#mask0_130_349)">
<path d="M32.0155 56.5736C31.6212 56.7761 31.1369 56.6368 30.9119 56.2575L21.1929 39.8796V36.0438L32.3669 55.4143C32.4815 55.6125 32.5083 55.8428 32.443 56.0625C32.3787 56.2832 32.2298 56.4621 32.0251 56.5682L32.0155 56.5736ZM19.0501 57.0257C19.0501 57.4843 18.6761 57.8571 18.2143 57.8571C17.7526 57.8571 17.3786 57.4843 17.3786 57.0257V40.4678V37.1624H17.5715H18.2143H19.0501V40.4678V57.0257ZM5.51895 56.2575C5.29288 56.6368 4.80752 56.775 4.40359 56.5682C4.19894 56.4621 4.05002 56.2832 3.98573 56.0625C3.92037 55.8428 3.9493 55.6136 4.06287 55.4143L15.2358 36.0588V39.8796L5.51895 56.2575ZM11.6572 31.3338V28.5985H24.7715V31.3338C24.7715 31.7838 24.389 32.1653 23.9358 32.1653H21.9933C21.9879 32.1449 21.9772 32.1278 21.9719 32.1074C21.9483 32.026 21.9129 31.951 21.884 31.8728C21.8347 31.7378 21.7844 31.6049 21.7211 31.4785C21.6804 31.3949 21.6311 31.3188 21.584 31.2385C21.5165 31.126 21.4479 31.0145 21.3697 30.9095C21.314 30.8335 21.254 30.7606 21.1919 30.6888C21.1083 30.5913 21.0215 30.4992 20.9294 30.4102C20.8608 30.3449 20.7911 30.2817 20.7183 30.2206C20.6186 30.1381 20.5158 30.0631 20.4076 29.9913C20.3304 29.9388 20.2533 29.8863 20.1719 29.8402C20.0561 29.7727 19.9351 29.717 19.8108 29.6613C19.7294 29.6249 19.6511 29.5863 19.5665 29.5552C19.4261 29.5027 19.2783 29.4663 19.1315 29.431C19.0565 29.4127 18.9858 29.3881 18.9108 29.3752C18.6836 29.3345 18.4522 29.311 18.2143 29.311C17.9754 29.311 17.744 29.3345 17.5168 29.3752C17.4397 29.3892 17.3679 29.4138 17.2929 29.432C17.1451 29.4674 16.9983 29.5038 16.859 29.5552C16.7733 29.5863 16.6951 29.626 16.6126 29.6624C16.4893 29.7181 16.3683 29.7727 16.2515 29.8402C16.1701 29.8874 16.094 29.9399 16.0147 29.9913C15.9086 30.0642 15.8036 30.1381 15.7051 30.2195C15.6322 30.2806 15.5636 30.3438 15.494 30.4092C15.4018 30.497 15.3151 30.5881 15.2326 30.6845C15.1693 30.7563 15.1115 30.8292 15.0547 30.9042C14.9776 31.0081 14.909 31.1153 14.8436 31.2267C14.7954 31.306 14.7483 31.3842 14.7065 31.4678C14.6454 31.5878 14.5961 31.7131 14.549 31.8395C14.519 31.9231 14.4847 32.0024 14.459 32.0881C14.4504 32.1149 14.4386 32.1385 14.4311 32.1653H12.4929C12.0397 32.1653 11.6572 31.7838 11.6572 31.3338ZM6.89038 24.7927H29.5383V26.4556H25.8429H10.5858H6.89038V24.7927ZM16.4465 33.016C16.5483 32.1256 17.3079 31.4538 18.2143 31.4538C19.1208 31.4538 19.8804 32.1256 19.9897 33.0695C19.9994 33.1242 20.0036 33.181 20.0036 33.2367C20.0036 33.3513 19.9919 33.4574 19.9544 33.6567C19.9511 33.676 19.9415 33.7328 19.8997 33.8356C19.8815 33.8817 19.8494 33.9535 19.8376 34.0028C19.8033 34.0756 19.7615 34.1442 19.7036 34.232C19.6319 34.3435 19.5419 34.4442 19.4079 34.5588C19.2258 34.7217 19.0329 34.8363 18.7929 34.9135C18.644 34.9671 18.5283 34.996 18.5111 35.0013C18.479 35.0013 18.4319 35.0056 18.389 35.0099L18.1136 35.0067L17.7965 34.9628C17.7376 34.9456 17.6743 34.9274 17.594 34.8985C17.3947 34.8363 17.2029 34.7217 17.0068 34.5471C16.7058 34.2878 16.5151 33.9245 16.4465 33.4424L16.4347 33.3503C16.4304 33.3149 16.4251 33.287 16.4251 33.2367C16.4251 33.181 16.4293 33.1242 16.4465 33.016ZM15.2358 54.8464C15.1758 54.8871 15.1168 54.9257 15.0665 54.9782L10.4615 53.4482C10.4293 53.1782 10.2975 52.9296 10.0886 52.7539L15.2358 44.0785V54.8464ZM26.1751 53.4482L21.5701 54.9782C21.4629 54.8668 21.3344 54.7875 21.1929 54.7318V44.0785L26.4258 52.8964C26.2929 53.056 26.1997 53.2425 26.1751 53.4482ZM22.6662 34.3081H23.9358C25.5783 34.3081 26.9144 32.9742 26.9144 31.3338V28.5985H30.6098C31.2023 28.5985 31.6812 28.1185 31.6812 27.527V23.7213C31.6812 23.1299 31.2023 22.6499 30.6098 22.6499H5.81895C5.22645 22.6499 4.74752 23.1299 4.74752 23.7213V27.527C4.74752 28.1185 5.22645 28.5985 5.81895 28.5985H9.51432V31.3338C9.51432 32.9742 10.8504 34.3081 12.4929 34.3081H13.7733L2.20715 54.3428C1.79679 55.0553 1.69822 55.8803 1.92965 56.6678C2.16215 57.4564 2.69251 58.0971 3.43394 58.4786C3.86787 58.7025 4.33395 58.8086 4.79359 58.8086C5.81466 58.8086 6.80681 58.2836 7.36074 57.3514L9.01718 54.5603C9.03539 54.5668 9.04718 54.5818 9.06539 54.5882C9.40289 54.6996 9.74468 54.6203 10.0136 54.4296L14.8276 56.0271C14.8983 56.2532 15.0354 56.445 15.2358 56.5832V57.0257C15.2358 58.6661 16.5718 60 18.2143 60C19.8569 60 21.1929 58.6661 21.1929 57.0257V56.7021C21.5026 56.5789 21.7147 56.3271 21.809 56.0271L26.6229 54.4296C26.8576 54.5946 27.1437 54.6621 27.4394 54.6043L29.069 57.3514C29.6197 58.2793 30.6065 58.8043 31.6319 58.8043C32.0926 58.8043 32.564 58.6971 33.0065 58.4732C33.7362 58.0971 34.2676 57.4564 34.4991 56.6678C34.7305 55.8814 34.633 55.0553 34.2237 54.3439L22.6662 34.3081Z" fill="#231F20"/>
<path d="M32.1869 19.2858H22.0576C24.2433 17.9733 25.7144 15.5873 25.7144 12.8573C25.7144 8.72152 22.349 5.35723 18.2143 5.35723C14.0797 5.35723 10.7143 8.72152 10.7143 12.8573C10.7143 15.5873 12.1854 17.9733 14.3711 19.2858H3.17037C2.60465 19.2858 2.14286 18.8198 2.14286 18.2476V7.50009H9.64289C10.2354 7.50009 10.7143 7.02009 10.7143 6.42866C10.7143 5.83723 10.2354 5.35723 9.64289 5.35723H2.14286V4.38651C2.14286 3.81436 2.60465 3.34829 3.17037 3.34829H14.5608C14.8543 3.34829 15.1351 3.22722 15.3376 3.014L16.1658 2.14293H32.1665C32.7451 2.14293 33.2144 2.61972 33.2144 3.20686V5.35723H25.7144C25.1219 5.35723 24.6429 5.83723 24.6429 6.42866C24.6429 7.02009 25.1219 7.50009 25.7144 7.50009H33.2144V18.2476C33.2144 18.8198 32.7526 19.2858 32.1869 19.2858ZM12.8572 12.8573C12.8572 9.90331 15.2604 7.50009 18.2143 7.50009C21.1683 7.50009 23.5715 9.90331 23.5715 12.8573C23.5715 15.8112 21.1683 18.2144 18.2143 18.2144C15.2604 18.2144 12.8572 15.8112 12.8572 12.8573ZM32.1665 6.48499e-05H15.7051C15.4115 6.48499e-05 15.1308 0.121136 14.9283 0.334351L14.1 1.20543H3.17037C1.42179 1.20543 0 2.63257 0 4.38651V18.2476C0 20.0016 1.42179 21.4287 3.17037 21.4287H32.1869C33.9355 21.4287 35.3573 20.0016 35.3573 18.2476V3.20686C35.3573 1.43793 33.9258 6.48499e-05 32.1665 6.48499e-05Z" fill="#231F20"/>
<path d="M18.2143 13.9284C17.6229 13.9284 17.1429 13.4474 17.1429 12.857C17.1429 12.2666 17.6229 11.7856 18.2143 11.7856C18.8057 11.7856 19.2857 12.2666 19.2857 12.857C19.2857 13.4474 18.8057 13.9284 18.2143 13.9284ZM18.2143 9.64269C16.4421 9.64269 15 11.0848 15 12.857C15 14.6291 16.4421 16.0713 18.2143 16.0713C19.9864 16.0713 21.4286 14.6291 21.4286 12.857C21.4286 11.0848 19.9864 9.64269 18.2143 9.64269Z" fill="#231F20"/>
</g>
</g>
<defs>
<clipPath id="clip0_130_349">
<rect width="35.3573" height="60" fill="white"/>
</clipPath>
</defs>
</svg>
