<svg width="60" height="60" viewBox="0 0 60 60" fill="none" xmlns="http://www.w3.org/2000/svg">
<path d="M35.1184 26.025L30.2809 17.65L25.4434 26.025L15.5684 20.3187L22.5684 8.19375C23.0228 7.41426 23.6731 6.76712 24.4547 6.31653C25.2364 5.86593 26.1224 5.62754 27.0246 5.625H33.5371C34.4394 5.62754 35.3253 5.86593 36.107 6.31653C36.8887 6.76712 37.539 7.41426 37.9934 8.19375L44.9996 20.3187L35.1184 26.025ZM30.2809 15.1562L35.5746 24.3125L43.2809 19.8625L36.9059 8.81875C36.5635 8.22832 36.0722 7.73807 35.4811 7.39698C34.8899 7.05589 34.2196 6.8759 33.5371 6.875H27.0246C26.3412 6.87543 25.6698 7.05517 25.0776 7.39625C24.4853 7.73733 23.993 8.22783 23.6496 8.81875L17.2809 19.8625L24.9996 24.3125L30.2809 15.1562Z" fill="black"/>
<path d="M30.2808 17.025H30.2183C30.136 17.0172 30.0562 16.9932 29.9833 16.9543C29.9104 16.9155 29.8459 16.8625 29.7936 16.7986C29.7413 16.7347 29.7022 16.661 29.6785 16.5819C29.6549 16.5027 29.6471 16.4197 29.6558 16.3375C29.6558 16.0938 30.362 10.275 37.2433 7.9188C37.3216 7.88857 37.4053 7.87447 37.4893 7.87731C37.5732 7.88016 37.6558 7.8999 37.7319 7.93536C37.8081 7.97083 37.8763 8.02128 37.9325 8.0837C37.9888 8.14613 38.0318 8.21925 38.0591 8.29869C38.0864 8.37813 38.0975 8.46227 38.0915 8.54607C38.0856 8.62987 38.0629 8.71161 38.0246 8.78642C37.9864 8.86122 37.9335 8.92755 37.869 8.98143C37.8046 9.03532 37.7299 9.07566 37.6495 9.10005C31.512 11.2063 30.9058 16.4125 30.8995 16.4688C30.8826 16.6213 30.8103 16.7623 30.6961 16.8648C30.582 16.9674 30.4342 17.0244 30.2808 17.025Z" fill="black"/>
<path d="M43.5316 28.125L32.0879 26.0625L35.0691 24.6063L43.8191 19.5563L46.9441 17.4563L43.5316 28.125ZM36.0316 25.525L42.6754 26.7063L44.6629 20.5188L44.4504 20.6625L36.0316 25.525Z" fill="black"/>
<path d="M48.8188 53.6562L34.8125 53.6188V42.2125H44.4812L39.6688 33.825L49.5625 28.1562L56.5562 40.3188C57.0059 41.1013 57.2425 41.9881 57.2425 42.8906C57.2425 43.7932 57.0059 44.6799 56.5562 45.4625L53.2875 51.0875C52.8335 51.8701 52.1815 52.5194 51.3971 52.9703C50.6127 53.4212 49.7235 53.6578 48.8188 53.6562ZM36.0625 52.3688L48.8125 52.4062C49.4943 52.4054 50.1639 52.2261 50.7549 51.8862C51.3459 51.5463 51.8376 51.0576 52.1812 50.4688L55.45 44.8438C55.7906 44.2526 55.9699 43.5823 55.9699 42.9C55.9699 42.2177 55.7906 41.5474 55.45 40.9562L49.125 29.8875L41.4 34.3125L46.6625 43.4937H36.0812L36.0625 52.3688Z" fill="black"/>
<path d="M48.806 53.6562H48.6872C48.6062 53.6405 48.5291 53.6089 48.4604 53.5633C48.3916 53.5177 48.3326 53.4589 48.2867 53.3903C48.2408 53.3217 48.2089 53.2448 48.1929 53.1638C48.1769 53.0829 48.1771 52.9996 48.1935 52.9187C49.4435 46.5562 45.256 43.4125 45.2185 43.3812C45.1431 43.3371 45.0779 43.2777 45.0269 43.2069C44.9759 43.1361 44.9403 43.0553 44.9224 42.9699C44.9046 42.8845 44.9048 42.7962 44.923 42.7109C44.9413 42.6256 44.9773 42.545 45.0286 42.4744C45.0799 42.4038 45.1454 42.3447 45.221 42.301C45.2965 42.2572 45.3803 42.2298 45.4671 42.2204C45.5539 42.211 45.6417 42.22 45.7248 42.2466C45.8079 42.2732 45.8845 42.3169 45.9497 42.375C46.1497 42.5187 50.8372 46.025 49.4185 53.1625C49.3884 53.3025 49.3112 53.4279 49.1997 53.5178C49.0882 53.6077 48.9492 53.6565 48.806 53.6562Z" fill="black"/>
<path d="M36.2998 56.75L28.7998 48.45L36.2998 39.575L36.0561 42.8875V52.975L36.2998 56.75ZM30.4748 48.425L34.8498 53.25V52.9937V43.275L30.4748 48.425Z" fill="black"/>
<path d="M25.1129 53.7938L11.1192 53.7501C10.2162 53.7447 9.33051 53.5023 8.55066 53.0471C7.77081 52.5919 7.12416 51.9399 6.67543 51.1563L3.44418 45.5313C2.99449 44.7499 2.75781 43.8642 2.75781 42.9626C2.75781 42.061 2.99449 41.1753 3.44418 40.3938L10.5129 28.2563L20.3692 33.9938L15.5004 42.3501L25.1692 42.3938L25.1129 53.7938ZM10.9629 30.0001L4.54418 40.9813C4.20359 41.5725 4.02432 42.2428 4.02432 42.9251C4.02432 43.6074 4.20359 44.2777 4.54418 44.8688L7.78168 50.4938C8.11395 51.0923 8.59787 51.5927 9.18481 51.9449C9.77175 52.297 10.441 52.4885 11.1254 52.5001L23.8692 52.5501L23.9129 43.6501L13.3317 43.6001L18.6567 34.4563L10.9629 30.0001Z" fill="black"/>
<path d="M11.1622 44.175C8.34798 44.1401 5.6484 43.0544 3.5935 41.1312C3.46932 41.0218 3.39365 40.8675 3.38311 40.7023C3.37256 40.537 3.428 40.3744 3.53725 40.25C3.64674 40.1258 3.80102 40.0501 3.96624 40.0396C4.13146 40.0291 4.29411 40.0845 4.4185 40.1937C9.26225 44.4562 13.9685 42.4812 14.1622 42.3937C14.3147 42.3266 14.4877 42.3228 14.643 42.3832C14.7983 42.4435 14.9232 42.5631 14.9904 42.7156C15.0575 42.8681 15.0613 43.041 15.0009 43.1963C14.9406 43.3516 14.821 43.4766 14.6685 43.5437C13.5501 43.9737 12.3604 44.1879 11.1622 44.175Z" fill="black"/>
<path d="M21.9066 36.6063L19.1629 34.7313L10.4441 29.6626L7.05664 27.9751L17.9941 25.6626L21.9066 36.6063ZM10.8254 28.4813L11.0566 28.5938L19.4504 33.4876L17.1816 27.1126L10.8254 28.4813Z" fill="black"/>
</svg>
