<svg width="60" height="60" viewBox="0 0 60 60" fill="none" xmlns="http://www.w3.org/2000/svg">
<path d="M15.0031 16.8713C15.0031 20.1368 16.0478 23.165 17.8194 25.6311L11.2494 37.0056C11.2352 37.0294 11.2132 37.0766 11.2019 37.1008C9.9054 37.6903 8.72357 38.3111 7.7356 39.212C6.68615 40.1691 5.97237 41.3612 5.6463 42.9565L3.84636 51.7255C3.48703 53.4837 4.16172 55.1365 5.38629 56.3049C6.56596 57.4305 8.20397 58.125 9.88715 58.125H50.1128C51.796 58.125 53.434 57.4305 54.6137 56.3049C55.8382 55.1365 56.513 53.4837 56.1536 51.7255L54.3537 42.9565C54.0276 41.3612 53.3138 40.1691 52.2644 39.212C51.277 38.3116 50.0882 37.6881 48.7926 37.099C48.7813 37.0742 48.7699 37.0483 48.756 37.0239L42.1805 25.6311C43.9521 23.165 44.9967 20.1367 44.9967 16.8713C44.9967 8.59817 38.2885 1.87499 29.9999 1.875C21.7114 1.87501 15.0031 8.59818 15.0031 16.8713ZM29.9999 8.43568C34.635 8.43568 38.4358 12.2003 38.4358 16.8713C38.4358 21.5424 34.6402 25.3162 29.9999 25.3162C25.3596 25.3162 21.564 21.5424 21.564 16.8713C21.564 12.2003 25.3648 8.43568 29.9999 8.43568ZM8.31048 10.567L9.65265 11.911C10.5333 12.8527 11.9192 11.4745 10.9821 10.589L9.63252 9.23951C9.45606 9.05827 9.21337 8.95587 8.96052 8.95569C8.11708 8.95592 7.70332 9.98159 8.31048 10.567ZM50.3672 9.23951L49.0177 10.589C48.0806 11.4745 49.4646 12.8528 50.3453 11.911L51.6893 10.567C52.2965 9.9816 51.8809 8.95593 51.0374 8.9557C50.7845 8.95588 50.5436 9.05827 50.3672 9.23951ZM29.1905 10.7611L27.4528 13.548L24.1788 14.2914C23.4811 14.4486 23.2051 15.269 23.6734 15.7947L25.8762 18.2593L25.5906 21.5057C25.5299 22.198 26.249 22.7062 26.909 22.4359L29.9999 21.1707L33.0908 22.4359C33.7508 22.7062 34.4698 22.198 34.4092 21.5057L34.1235 18.2593L36.3264 15.7947C36.7946 15.269 36.5187 14.4486 35.821 14.2914L32.547 13.548L30.8092 10.7611C30.6423 10.4916 30.346 10.3237 29.9999 10.3143C29.6538 10.3236 29.3575 10.4916 29.1905 10.7611ZM6.56178 14.0625C5.31142 14.0625 5.31142 15.9375 6.56178 15.9375H8.4368C9.68716 15.9375 9.68716 14.0625 8.4368 14.0625H6.56178ZM51.563 14.0625C50.3126 14.0625 50.3126 15.9375 51.563 15.9375H53.438C54.6883 15.9375 54.6883 14.0625 53.438 14.0625H51.563ZM10.2972 17.807C10.0538 17.8144 9.82227 17.9163 9.65265 18.0908L8.31048 19.433C7.36872 20.3136 8.74696 21.6995 9.63252 20.7623L10.9821 19.4129C11.5898 18.8151 11.1493 17.7819 10.2972 17.807ZM49.0177 19.4128L50.3672 20.7623C51.2528 21.6995 52.6311 20.3136 51.6893 19.433L50.3453 18.0908C50.1757 17.9163 49.9458 17.8145 49.7026 17.807C48.8504 17.7819 48.41 18.8151 49.0177 19.4128ZM40.9059 27.171L46.2216 36.3812L40.0142 35.7715C39.6159 35.7343 39.238 35.9546 39.073 36.319L36.471 42.0154L31.0802 32.6953L31.6021 31.7908C35.2628 31.4032 38.5199 29.7003 40.9059 27.171ZM19.0975 27.1729C21.7003 29.9324 25.3318 31.7038 29.4011 31.8622L23.5287 42.0154L20.9268 36.319C20.7616 35.9547 20.3838 35.7344 19.9856 35.7715L13.7781 36.3813L19.0975 27.1729ZM29.9999 34.5649L32.644 39.1498L29.9999 41.7994L27.3558 39.1498L29.9999 34.5649ZM19.5022 37.7106L22.5821 44.4507C22.896 45.1486 23.8668 45.1963 24.2484 44.5331L26.3835 40.8344L27.1177 41.5687L24.5249 56.2501H9.88705C8.73073 56.2501 7.55056 55.7767 6.68994 54.9555C5.8717 54.1747 5.4647 53.196 5.67919 52.1466L7.47916 43.3301C7.72508 42.1262 8.24312 41.2889 9.00261 40.5963C9.76214 39.9037 10.8081 39.3417 12.0752 38.7689L13.0274 38.3368L19.5022 37.7106ZM40.4994 37.7106L46.9724 38.3368L47.9246 38.769C49.1917 39.3418 50.2376 39.9037 50.9971 40.5964C51.7566 41.289 52.2746 42.1262 52.5206 43.3301L54.3206 52.1467C54.535 53.1961 54.1281 54.1748 53.3098 54.9555C52.4492 55.7766 51.269 56.25 50.1127 56.25H35.4749L32.882 41.5686L33.6163 40.8344L35.7514 44.5331C36.1349 45.1873 37.0958 45.1398 37.4122 44.4507L40.4994 37.7106ZM28.7383 43.1891L29.3352 43.7861C29.5185 43.9703 29.7592 44.0625 29.9999 44.0625C30.2406 44.0625 30.4813 43.9703 30.6646 43.7861L31.2615 43.1891L33.5705 56.25H26.4292L28.7383 43.1891ZM39.3788 45.9394C38.8603 45.9364 38.4378 46.3548 38.4358 46.8732V50.6232C38.4338 51.1445 38.8574 51.5674 39.3788 51.5644H48.7485C49.2692 51.5663 49.6917 51.1438 49.6897 50.6232V46.8732C49.6877 46.3555 49.2663 45.9374 48.7485 45.9394H39.3788Z" fill="black"/>
</svg>
