<svg width="32" height="32" viewBox="0 0 32 32" fill="none" xmlns="http://www.w3.org/2000/svg">
<path d="M16.0001 2.6665C8.64897 2.6665 2.66675 8.64873 2.66675 15.9998C2.66675 23.3509 8.64897 29.3332 16.0001 29.3332C23.3512 29.3332 29.3334 23.3509 29.3334 15.9998C29.3334 8.64873 23.3512 2.6665 16.0001 2.6665ZM16.0001 4.88873C22.1501 4.88873 27.1112 9.84984 27.1112 15.9998C27.1139 18.6598 26.1601 21.232 24.4238 23.2472C22.6875 25.2623 20.2845 26.5859 17.6534 26.9765V19.2398H20.8179L21.3145 16.0254H17.6534V14.2698C17.6534 12.9365 18.0923 11.7509 19.3401 11.7509H21.3456V8.9465C20.9934 8.89873 20.2479 8.79539 18.839 8.79539C15.8967 8.79539 14.1723 10.3487 14.1723 13.8887V16.0254H11.1479V19.2398H14.1723V26.9487C11.5776 26.5217 9.21923 25.1859 7.51863 23.1802C5.81802 21.1745 4.88596 18.6295 4.88897 15.9998C4.88897 9.84984 9.85008 4.88873 16.0001 4.88873Z" fill="black"/>
</svg>
