<svg width="136" height="126" viewBox="0 0 136 126" fill="none" xmlns="http://www.w3.org/2000/svg">
<mask id="path-1-outside-1_125_185" maskUnits="userSpaceOnUse" x="19.2046" y="22.319" width="97.1176" height="74.1542" fill="black">
<rect fill="white" x="19.2046" y="22.319" width="97.1176" height="74.1542"/>
<path d="M72.7052 60.5722C69.5157 58.0081 64.1133 54.6421 55.9015 54.6708C54.3383 64.4541 61.0262 72.6739 66.2874 74.4954C73.5628 77.0143 81.8303 67.9081 72.7052 60.5722Z"/>
</mask>
<path d="M43.248 57.0847L43.0796 56.6139L43.248 57.0847ZM72.7052 60.5722L72.392 60.9619L72.7052 60.5722ZM66.2874 74.4954L66.451 74.023L66.2874 74.4954ZM57.9661 48.5377L58.4095 48.7688L57.9661 48.5377ZM89.2195 31.7923L89.2748 32.2892L89.2195 31.7923ZM115.65 31.3558L111.736 27.1119L110.018 32.6239L115.65 31.3558ZM20.8163 95.9734C20.86 95.6703 20.91 95.3555 20.9663 95.0297L19.9809 94.8595C19.9231 95.1938 19.8716 95.5177 19.8265 95.8306L20.8163 95.9734ZM21.3347 93.1492C21.4654 92.5471 21.6128 91.9196 21.7765 91.2704L20.8069 91.0259C20.6406 91.6852 20.4907 92.3236 20.3575 92.9371L21.3347 93.1492ZM22.2747 89.4078C22.4456 88.802 22.6289 88.1822 22.8243 87.5509L21.869 87.2552C21.6712 87.8943 21.4855 88.5222 21.3122 89.1362L22.2747 89.4078ZM23.416 85.7159C23.6177 85.1144 23.8294 84.5053 24.051 83.8906L23.1102 83.5516C22.8861 84.1733 22.672 84.7895 22.4679 85.3981L23.416 85.7159ZM24.7271 82.0782C24.957 81.482 25.1956 80.8827 25.4428 80.2819L24.5181 79.9014C24.268 80.5091 24.0266 81.1154 23.7941 81.7183L24.7271 82.0782ZM26.198 78.5043C26.4556 77.9166 26.7211 77.3294 26.9944 76.7441L26.0883 76.3211C25.8116 76.9136 25.5428 77.5081 25.2821 78.1028L26.198 78.5043ZM27.8332 75.0041C28.1201 74.4276 28.4144 73.8548 28.716 73.2873L27.833 72.818C27.5271 73.3936 27.2287 73.9744 26.9379 74.5586L27.8332 75.0041ZM29.6453 71.5972C29.9648 71.0356 30.2915 70.4813 30.6251 69.9358L29.772 69.414C29.4327 69.9689 29.1006 70.5323 28.7761 71.1026L29.6453 71.5972ZM31.6587 68.3093C32.0156 67.7692 32.3796 67.2404 32.7503 66.7246L31.9383 66.141C31.5595 66.6679 31.1882 67.2075 30.8244 67.758L31.6587 68.3093ZM33.9045 65.1906C34.306 64.6815 34.7145 64.1889 35.1298 63.7148L34.3775 63.0559C33.9503 63.5438 33.5308 64.0496 33.1193 64.5713L33.9045 65.1906ZM36.4334 62.3113C36.8883 61.851 37.3503 61.4139 37.8189 61.0025L37.1592 60.251C36.6716 60.6791 36.1925 61.1325 35.7221 61.6085L36.4334 62.3113ZM39.2982 59.8078C39.8167 59.4252 40.3422 59.0753 40.8743 58.7608L40.3655 57.8999C39.8021 58.2329 39.2483 58.6018 38.7045 59.0031L39.2982 59.8078ZM42.547 57.901C42.8351 57.775 43.1249 57.6597 43.4164 57.5555L43.0796 56.6139C42.7659 56.7261 42.4548 56.8499 42.1464 56.9847L42.547 57.901ZM43.4164 57.5555C43.7561 57.434 44.0926 57.3178 44.4261 57.2067L44.11 56.258C43.7695 56.3714 43.4261 56.49 43.0796 56.6139L43.4164 57.5555ZM46.4649 56.5791C47.1681 56.3808 47.8565 56.2058 48.5303 56.0526L48.3086 55.0775C47.6178 55.2345 46.9129 55.4138 46.1935 55.6166L46.4649 56.5791ZM50.6189 55.6383C51.3387 55.5167 52.0406 55.4206 52.7248 55.3479L52.6192 54.3535C51.9143 54.4284 51.1921 54.5273 50.4524 54.6522L50.6189 55.6383ZM54.8427 55.1934C55.2015 55.1795 55.555 55.172 55.9032 55.1708L55.8997 54.1708C55.5396 54.1721 55.1744 54.1798 54.8038 54.1942L54.8427 55.1934ZM55.4077 54.5919C55.3531 54.9338 55.3083 55.2738 55.2729 55.6118L56.2675 55.716C56.301 55.3958 56.3434 55.0737 56.3952 54.7497L55.4077 54.5919ZM55.1706 57.6661C55.174 58.3618 55.2161 59.0465 55.293 59.7182L56.2865 59.6045C56.2136 58.9682 56.1738 58.3198 56.1706 57.6611L55.1706 57.6661ZM55.6358 61.7433C55.7878 62.42 55.9742 63.0801 56.1905 63.7215L57.1381 63.4019C56.9326 62.7926 56.7557 62.166 56.6115 61.5241L55.6358 61.7433ZM56.9441 65.6297C57.2312 66.2613 57.5465 66.87 57.885 67.4533L58.7499 66.9513C58.4276 66.3961 58.1276 65.8168 57.8545 65.2159L56.9441 65.6297ZM59.0005 69.1736C59.4094 69.7405 59.8394 70.2756 60.2844 70.7758L61.0315 70.1111C60.6093 69.6365 60.2006 69.1279 59.8115 68.5885L59.0005 69.1736ZM61.733 72.2365C62.263 72.714 62.8048 73.1437 63.3499 73.5209L63.9189 72.6986C63.4109 72.3471 62.9025 71.9441 62.4024 71.4935L61.733 72.2365ZM65.1492 74.5685C65.476 74.7227 65.8015 74.8563 66.1238 74.9679L66.451 74.023C66.165 73.9239 65.8727 73.8042 65.5759 73.6641L65.1492 74.5685ZM66.1238 74.9679C66.4483 75.0803 66.7748 75.1709 67.1019 75.2409L67.3111 74.263C67.0237 74.2016 66.7366 74.1218 66.451 74.023L66.1238 74.9679ZM69.1173 75.4188C69.7997 75.3956 70.4698 75.2894 71.114 75.1105L70.8464 74.1469C70.2761 74.3053 69.6843 74.3989 69.0833 74.4194L69.1173 75.4188ZM72.9829 74.3512C73.5778 74.0259 74.132 73.6341 74.6308 73.1861L73.9626 72.4421C73.5219 72.8379 73.031 73.1851 72.5032 73.4737L72.9829 74.3512ZM75.962 71.6601C76.3412 71.0965 76.6474 70.4843 76.8634 69.8346L75.9145 69.5191C75.7284 70.0787 75.4635 70.6097 75.1323 71.1018L75.962 71.6601ZM77.2224 67.8226C77.2427 67.1627 77.1706 66.4838 76.9946 65.7961L76.0258 66.0441C76.1787 66.6414 76.2403 67.2264 76.2228 67.7918L77.2224 67.8226ZM76.2515 63.9123C75.953 63.3568 75.5825 62.803 75.1352 62.2554L74.3607 62.888C74.7702 63.3893 75.1044 63.8901 75.3707 64.3856L76.2515 63.9123ZM73.7688 60.8235C73.5321 60.6082 73.2821 60.3945 73.0185 60.1826L72.392 60.9619C72.6403 61.1616 72.8748 61.3621 73.096 61.5633L73.7688 60.8235ZM73.0185 60.1826C72.7879 59.9972 72.5457 59.8075 72.2918 59.6151L71.6879 60.4122C71.9336 60.5984 72.1682 60.7821 72.392 60.9619L73.0185 60.1826ZM70.7837 58.5452C70.2913 58.2192 69.7657 57.8936 69.2058 57.5755L68.7118 58.445C69.2506 58.7511 69.7569 59.0647 70.2316 59.379L70.7837 58.5452ZM67.5638 56.7177C67.0233 56.4593 66.4566 56.2115 65.8629 55.9788L65.4979 56.9098C66.0684 57.1334 66.613 57.3716 67.1326 57.6199L67.5638 56.7177ZM64.1136 55.3654C63.5393 55.1871 62.9433 55.0242 62.3251 54.8799L62.0979 55.8538C62.6923 55.9925 63.2652 56.1491 63.8171 56.3204L64.1136 55.3654ZM60.5085 54.5228C59.9146 54.4274 59.3025 54.3495 58.672 54.2915L58.5803 55.2873C59.1883 55.3433 59.7781 55.4183 60.3499 55.5102L60.5085 54.5228ZM56.8252 54.1818C56.5206 54.1735 56.2121 54.1697 55.8997 54.1708L55.9032 55.1708C56.2054 55.1698 56.5035 55.1734 56.7978 55.1814L56.8252 54.1818ZM56.3952 54.7497C56.4365 54.4916 56.4836 54.2322 56.5369 53.9718L55.5572 53.7715C55.501 54.046 55.4513 54.3195 55.4077 54.5919L56.3952 54.7497ZM56.9196 52.4367C57.0659 51.9399 57.2351 51.4397 57.4286 50.9368L56.4954 50.5777C56.2922 51.1056 56.1143 51.6314 55.9603 52.1543L56.9196 52.4367ZM58.0552 49.4796C58.1677 49.2431 58.2857 49.0061 58.4095 48.7688L57.5227 48.3065C57.3934 48.5547 57.2699 48.8025 57.1521 49.0501L58.0552 49.4796ZM58.4095 48.7688C58.5729 48.4553 58.7365 48.1485 58.9005 47.8483L58.0228 47.3689C57.8557 47.675 57.689 47.9875 57.5227 48.3065L58.4095 48.7688ZM59.9296 46.0564C60.2988 45.4461 60.6703 44.8669 61.0446 44.3169L60.2179 43.7543C59.833 44.3199 59.4519 44.9141 59.074 45.5387L59.9296 46.0564ZM62.2557 42.6514C62.6902 42.0936 63.1295 41.5712 63.5746 41.0813L62.8346 40.4088C62.3716 40.9182 61.9161 41.4601 61.4668 42.0369L62.2557 42.6514ZM65.0141 39.6279C65.5261 39.1553 66.0473 38.7193 66.5792 38.3162L65.9752 37.5192C65.4171 37.9421 64.8712 38.3989 64.3358 38.8932L65.0141 39.6279ZM68.2654 37.1674C68.8482 36.8122 69.4454 36.4884 70.059 36.1922L69.6243 35.2916C68.9824 35.6015 68.3565 35.9407 67.7449 36.3136L68.2654 37.1674ZM71.9401 35.3863C72.5706 35.1476 73.219 34.931 73.8871 34.7329L73.6028 33.7742C72.9133 33.9786 72.2415 34.2029 71.586 34.4511L71.9401 35.3863ZM75.8809 34.2073C76.5375 34.0537 77.2124 33.913 77.9072 33.7825L77.7225 32.7997C77.0152 32.9326 76.3258 33.0762 75.6531 33.2336L75.8809 34.2073ZM79.9532 33.4333C80.6212 33.3295 81.3065 33.2318 82.0103 33.1379L81.878 32.1467C81.1685 32.2414 80.476 32.3401 79.7997 32.4452L79.9532 33.4333ZM84.0797 32.877C84.7549 32.796 85.446 32.7165 86.154 32.6366L86.0419 31.6429C85.3325 31.7229 84.639 31.8028 83.9607 31.8841L84.0797 32.877ZM88.2309 32.4051C88.575 32.367 88.923 32.3284 89.2748 32.2892L89.1641 31.2953C88.8126 31.3345 88.4649 31.373 88.1207 31.4112L88.2309 32.4051ZM89.2748 32.2892C89.5957 32.2535 89.9126 32.2184 90.2254 32.184L90.1162 31.19C89.8028 31.2244 89.4855 31.2596 89.1641 31.2953L89.2748 32.2892ZM92.1077 31.98C92.7564 31.9108 93.3867 31.8448 93.9992 31.7819L93.8971 30.7872C93.2832 30.8502 92.6516 30.9163 92.0016 30.9857L92.1077 31.98ZM95.8863 31.5929C96.5374 31.5294 97.1667 31.4699 97.7753 31.4144L97.6845 30.4186C97.0736 30.4742 96.4422 30.5339 95.7892 30.5976L95.8863 31.5929ZM99.6589 31.2501C100.316 31.1957 100.946 31.1466 101.551 31.1028L101.479 30.1054C100.87 30.1494 100.236 30.1988 99.5763 30.2536L99.6589 31.2501ZM103.44 30.979C104.101 30.9406 104.729 30.9098 105.326 30.8865L105.287 29.8873C104.683 29.9108 104.049 29.942 103.382 29.9807L103.44 30.979ZM107.214 30.8366C107.882 30.8284 108.506 30.8318 109.092 30.8468L109.117 29.8471C108.517 29.8318 107.88 29.8283 107.202 29.8367L107.214 30.8366ZM110.962 30.9431C111.629 30.9972 112.24 31.0708 112.809 31.1634L112.97 30.1764C112.372 30.079 111.734 30.0024 111.043 29.9463L110.962 30.9431ZM43.248 57.0847L42.9113 56.1431L43.248 57.0847ZM72.7052 60.5722L72.0787 61.3516L72.0787 61.3516L72.7052 60.5722ZM66.2874 74.4954L66.6145 73.5505L66.2874 74.4954ZM57.9661 48.5377L58.8528 48.9999L57.9661 48.5377ZM89.2195 31.7923L89.3301 32.7861L89.2195 31.7923ZM115.65 31.3558L107.821 22.8681L104.385 33.892L115.65 31.3558ZM21.3111 96.0448C21.3541 95.7466 21.4034 95.4364 21.459 95.1149L19.4882 94.7744C19.4297 95.1129 19.3775 95.4415 19.3316 95.7592L21.3111 96.0448ZM21.8234 93.2552C21.9528 92.6589 22.0989 92.0368 22.2613 91.3926L20.322 90.9037C20.1545 91.568 20.0033 92.2118 19.8689 92.831L21.8234 93.2552ZM22.7559 89.5436C22.9257 88.9419 23.1078 88.3261 23.302 87.6988L21.3914 87.1074C21.1924 87.7504 21.0055 88.3823 20.831 89.0004L22.7559 89.5436ZM23.8901 85.8749C24.0906 85.2769 24.3011 84.6713 24.5214 84.0602L22.6399 83.382C22.4145 84.0073 22.1991 84.627 21.9938 85.2391L23.8901 85.8749ZM25.1936 82.2581C25.4222 81.6654 25.6595 81.0695 25.9052 80.4722L24.0557 79.7112C23.8042 80.3224 23.5614 80.932 23.3276 81.5384L25.1936 82.2581ZM26.6559 78.705C26.912 78.1209 27.1759 77.5372 27.4474 76.9557L25.6352 76.1095C25.3568 76.7058 25.0864 77.3038 24.8242 77.902L26.6559 78.705ZM28.2808 75.2269C28.5658 74.6542 28.8581 74.0854 29.1576 73.522L27.3915 72.5834C27.0834 73.1631 26.7829 73.7478 26.4903 74.3358L28.2808 75.2269ZM30.0799 71.8445C30.3969 71.2873 30.7209 70.7375 31.0517 70.1967L29.3455 69.1531C29.0033 69.7127 28.6686 70.2807 28.3416 70.8554L30.0799 71.8445ZM32.0759 68.5849C32.4294 68.05 32.7896 67.5266 33.1563 67.0164L31.5323 65.8491C31.1495 66.3816 30.7745 66.9267 30.4073 67.4823L32.0759 68.5849ZM34.2971 65.5002C34.6936 64.9975 35.0966 64.5115 35.5059 64.0442L34.0014 62.7265C33.5682 63.2212 33.1432 63.7336 32.7268 64.2616L34.2971 65.5002ZM36.7891 62.6628C37.2363 62.2102 37.6896 61.7813 38.1488 61.3782L36.8293 59.8752C36.3322 60.3117 35.8445 60.7732 35.3665 61.257L36.7891 62.6628ZM39.5951 60.2101C40.101 59.8368 40.6123 59.4964 41.1287 59.1912L40.111 57.4695C39.532 57.8118 38.9641 58.1902 38.4076 58.6007L39.5951 60.2101ZM42.7472 58.3591C43.0252 58.2376 43.3044 58.1266 43.5847 58.0263L42.9113 56.1431C42.5865 56.2593 42.2647 56.3873 41.9461 56.5266L42.7472 58.3591ZM43.5847 58.0263C43.9211 57.906 44.2542 57.791 44.5841 57.681L43.9519 55.7836C43.608 55.8982 43.2611 56.018 42.9113 56.1431L43.5847 58.0263ZM46.6006 57.0603C47.2958 56.8643 47.9758 56.6914 48.6412 56.5401L48.1978 54.5899C47.4985 54.7489 46.7852 54.9303 46.0578 55.1354L46.6006 57.0603ZM50.7021 56.1313C51.412 56.0114 52.1037 55.9167 52.7776 55.8452L52.5664 53.8563C51.8512 53.9323 51.1188 54.0326 50.3691 54.1592L50.7021 56.1313ZM54.8622 55.6931C55.2151 55.6793 55.5627 55.672 55.905 55.6708L55.898 53.6708C55.532 53.6721 55.1608 53.6799 54.7844 53.6946L54.8622 55.6931ZM54.914 54.513C54.858 54.8638 54.812 55.2128 54.7756 55.5597L56.7647 55.768C56.7973 55.4568 56.8386 55.1436 56.8889 54.8286L54.914 54.513ZM54.6706 57.6685C54.6741 58.3828 54.7173 59.0857 54.7962 59.7751L56.7832 59.5476C56.7124 58.929 56.6737 58.2988 56.6706 57.6586L54.6706 57.6685ZM55.1479 61.8529C55.3039 62.547 55.495 63.2239 55.7167 63.8813L57.6119 63.2422C57.4118 62.6488 57.2396 62.0389 57.0993 61.4144L55.1479 61.8529ZM56.4889 65.8366C56.783 66.4836 57.1059 67.1069 57.4525 67.7042L59.1823 66.7003C58.8682 66.1591 58.5758 65.5946 58.3097 65.0091L56.4889 65.8366ZM58.595 69.4661C59.0138 70.0468 59.4545 70.5952 59.9108 71.1081L61.4051 69.7788C60.9942 69.3169 60.5962 68.8217 60.217 68.296L58.595 69.4661ZM61.3983 72.6079C61.9433 73.0989 62.5017 73.5421 63.0653 73.9321L64.2034 72.2875C63.7139 71.9487 63.2222 71.5592 62.7371 71.1221L61.3983 72.6079ZM64.9358 75.0207C65.2776 75.182 65.6197 75.3225 65.9602 75.4404L66.6145 73.5505C66.3467 73.4577 66.0711 73.3449 65.7893 73.212L64.9358 75.0207ZM65.9602 75.4404C66.3042 75.5595 66.6504 75.6556 66.9973 75.7298L67.4157 73.7741C67.1482 73.7169 66.8808 73.6426 66.6145 73.5505L65.9602 75.4404ZM69.1343 75.9185C69.8574 75.8939 70.5667 75.7814 71.2478 75.5922L70.7126 73.6652C70.1792 73.8133 69.6266 73.9006 69.0663 73.9197L69.1343 75.9185ZM73.2227 74.7899C73.8511 74.4463 74.437 74.0322 74.9649 73.5581L73.6284 72.0701C73.2169 72.4398 72.7577 72.7647 72.2633 73.035L73.2227 74.7899ZM76.3768 71.9393C76.7801 71.3399 77.1069 70.6871 77.3378 69.9924L75.44 69.3614C75.2689 69.8759 75.0246 70.3663 74.7175 70.8227L76.3768 71.9393ZM77.7221 67.838C77.7439 67.1308 77.6666 66.405 77.479 65.6721L75.5414 66.1681C75.6828 66.7202 75.739 67.2583 75.7231 67.7764L77.7221 67.838ZM76.692 63.6756C76.3774 63.0901 75.9887 62.5099 75.5224 61.9391L73.9735 63.2043C74.3641 63.6825 74.68 64.1567 74.9302 64.6223L76.692 63.6756ZM74.1053 60.4536C73.8608 60.2312 73.603 60.0109 73.3318 59.7929L72.0787 61.3516C72.3194 61.5451 72.5462 61.7391 72.7596 61.9332L74.1053 60.4536ZM73.3318 59.7929C73.0977 59.6047 72.8518 59.4121 72.5937 59.2166L71.386 60.8108C71.6276 60.9938 71.8584 61.1745 72.0787 61.3516L73.3318 59.7929ZM71.0597 58.1283C70.5585 57.7965 70.0232 57.4649 69.4528 57.1408L68.4648 58.8797C68.993 59.1799 69.4896 59.4874 69.9556 59.7959L71.0597 58.1283ZM67.7794 56.2665C67.2285 56.0032 66.6507 55.7506 66.0453 55.5133L65.3155 57.3753C65.8743 57.5944 66.4079 57.8277 66.9169 58.071L67.7794 56.2665ZM64.2619 54.8879C63.6763 54.7061 63.0688 54.5401 62.4388 54.393L61.9842 56.3407C62.5668 56.4766 63.1282 56.6301 63.6689 56.7979L64.2619 54.8879ZM60.5878 54.0292C59.9828 53.932 59.3596 53.8527 58.7178 53.7936L58.5345 55.7852C59.1312 55.8401 59.7098 55.9138 60.2706 56.0038L60.5878 54.0292ZM56.8389 53.682C56.5292 53.6735 56.2155 53.6697 55.898 53.6708L55.905 55.6708C56.202 55.6698 56.495 55.6733 56.7841 55.6812L56.8389 53.682ZM56.8889 54.8286C56.9291 54.5776 56.9749 54.3254 57.0267 54.072L55.0673 53.6713C55.0097 53.9529 54.9587 54.2335 54.914 54.513L56.8889 54.8286ZM57.3992 52.578C57.5417 52.0941 57.7066 51.6067 57.8953 51.1164L56.0287 50.3981C55.8207 50.9386 55.6385 51.4771 55.4807 52.0131L57.3992 52.578ZM58.5067 49.6944C58.6166 49.4634 58.7319 49.2319 58.8528 48.9999L57.0793 48.0754C56.9472 48.3289 56.821 48.5822 56.7006 48.8353L58.5067 49.6944ZM58.8528 48.9999C59.0148 48.6891 59.1769 48.3852 59.3393 48.0879L57.584 47.1293C57.4153 47.4383 57.2471 47.7536 57.0793 48.0754L58.8528 48.9999ZM60.3574 46.3152C60.7223 45.7122 61.0889 45.1405 61.458 44.5983L59.8046 43.4729C59.4143 44.0463 59.0285 44.6481 58.6462 45.2799L60.3574 46.3152ZM62.6502 42.9586C63.0773 42.4103 63.5084 41.8976 63.9447 41.4176L62.4646 40.0725C61.9927 40.5917 61.529 41.1433 61.0724 41.7296L62.6502 42.9586ZM65.3532 39.9953C65.8536 39.5335 66.3623 39.1078 66.8812 38.7147L65.6732 37.1207C65.102 37.5535 64.5437 38.0207 63.9966 38.5258L65.3532 39.9953ZM68.5257 37.5944C69.0941 37.2479 69.6769 36.9319 70.2764 36.6425L69.4069 34.8413C68.7509 35.158 68.1107 35.505 67.4846 35.8867L68.5257 37.5944ZM72.1171 35.8539C72.7352 35.6199 73.3718 35.4072 74.0292 35.2123L73.4607 33.2948C72.7605 33.5024 72.077 33.7306 71.409 33.9835L72.1171 35.8539ZM75.9948 34.6942C76.6434 34.5424 77.311 34.4033 77.9996 34.2739L77.6301 32.3083C76.9166 32.4424 76.22 32.5875 75.5392 32.7467L75.9948 34.6942ZM80.03 33.9274C80.6938 33.8243 81.3755 33.727 82.0764 33.6335L81.8118 31.6511C81.0995 31.7461 80.4034 31.8454 79.7229 31.9511L80.03 33.9274ZM84.1392 33.3734C84.8129 33.2927 85.5027 33.2133 86.2101 33.1334L85.9858 31.1461C85.2758 31.2262 84.581 31.3061 83.9011 31.3877L84.1392 33.3734ZM88.2859 32.9021C88.6301 32.8639 88.9782 32.8253 89.3301 32.7861L89.1088 30.7984C88.7575 30.8375 88.4098 30.8761 88.0656 30.9142L88.2859 32.9021ZM89.3301 32.7861C89.6508 32.7504 89.9675 32.7154 90.2801 32.681L90.0615 30.693C89.7479 30.7275 89.4304 30.7626 89.1088 30.7984L89.3301 32.7861ZM92.1607 32.4772C92.8089 32.4081 93.4385 32.3421 94.0503 32.2793L93.8461 30.2898C93.2314 30.3528 92.5991 30.4191 91.9486 30.4885L92.1607 32.4772ZM95.9349 32.0905C96.585 32.0271 97.2132 31.9677 97.8207 31.9124L97.6391 29.9206C97.0271 29.9764 96.3946 30.0362 95.7407 30.1L95.9349 32.0905ZM99.7003 31.7484C100.355 31.6941 100.984 31.6451 101.587 31.6015L101.443 29.6067C100.832 29.6509 100.197 29.7004 99.5349 29.7553L99.7003 31.7484ZM103.469 31.4782C104.127 31.4399 104.752 31.4093 105.345 31.3861L105.268 29.3877C104.66 29.4114 104.023 29.4427 103.353 29.4816L103.469 31.4782ZM107.22 31.3366C107.882 31.3284 108.5 31.3318 109.079 31.3466L109.13 29.3473C108.523 29.3318 107.88 29.3283 107.196 29.3367L107.22 31.3366ZM110.922 31.4414C111.577 31.4946 112.175 31.5667 112.728 31.6569L113.05 29.683C112.438 29.5831 111.786 29.505 111.084 29.448L110.922 31.4414Z" fill="#F85D2E" mask="url(#path-1-outside-1_125_185)"/>
</svg>
