<svg width="61" height="61" viewBox="0 0 61 61" fill="none" xmlns="http://www.w3.org/2000/svg">
<path fill-rule="evenodd" clip-rule="evenodd" d="M60.2852 10.6631C60.2852 10.0054 59.7518 9.47168 59.0938 9.47168H1.90625C1.24824 9.47168 0.714844 10.0054 0.714844 10.6631V50.3369C0.714844 50.9946 1.24824 51.5283 1.90625 51.5283H59.0938C59.7518 51.5283 60.2852 50.9946 60.2852 50.3369V10.6631ZM53.5884 49.1455L24.1895 19.7464C23.7083 19.265 22.9269 19.265 22.4457 19.7464L3.09766 39.0948V49.1455H53.5884ZM57.9023 35.8268L52.9024 30.8264C52.4212 30.3451 51.6398 30.3451 51.1586 30.8264L44.899 37.0861L56.9582 49.1455H57.9023V35.8268ZM3.09766 35.7255L20.7609 18.0617C22.172 16.6511 24.4633 16.6511 25.8744 18.0617L43.2141 35.4014L49.4737 29.1418C50.8848 27.7312 53.1762 27.7312 54.5873 29.1418L57.9023 32.4563V11.8545C50.4689 11.8545 10.5311 11.8545 3.09766 11.8545V35.7255ZM43.2141 13.7524C40.7624 13.7524 38.7719 15.7432 38.7719 18.194C38.7719 20.6459 40.7624 22.6367 43.2141 22.6367C45.6658 22.6367 47.6562 20.6459 47.6562 18.194C47.6562 15.7432 45.6658 13.7524 43.2141 13.7524ZM43.2141 16.1352C44.3507 16.1352 45.2734 17.0574 45.2734 18.194C45.2734 19.3318 44.3507 20.2539 43.2141 20.2539C42.0775 20.2539 41.1547 19.3318 41.1547 18.194C41.1547 17.0574 42.0775 16.1352 43.2141 16.1352Z" fill="black"/>
</svg>
