<svg width="60" height="60" viewBox="0 0 60 60" fill="none" xmlns="http://www.w3.org/2000/svg">
<path d="M24.3658 14.5551C24.0208 14.7703 23.5532 14.9023 23.1681 14.7716C22.2598 14.4633 21.981 12.2242 23.0065 10.9192C23.4222 10.3897 24.0581 10.0806 24.7313 10.0806H30.1618C37.4897 10.0806 37.6437 10.1383 37.5013 12.8387C37.4604 13.6133 37.4262 14.0498 37.3258 14.295C37.1845 14.6402 36.7056 14.6952 36.3326 14.6952C35.6667 14.6952 35.5122 14.5147 35.379 13.5813C35.2875 12.9396 34.7432 12.4596 34.0951 12.4489L26.0229 12.3162C25.4896 12.3074 25.0387 12.709 24.9859 13.2397C24.9317 13.7841 24.6525 14.3763 24.3658 14.5551Z" fill="#FF4C00"/>
<path d="M12.2866 15.8091C9.85451 15.8091 9.3164 15.5055 9.74899 14.3769C9.8505 14.1118 10.5657 13.9486 11.4455 13.8838C12.9392 13.6488 15.5794 13.8072 15.7814 14.3323C16.0715 15.0855 15.6824 15.4839 14.4002 15.6302C13.918 15.7537 13.2223 15.8091 12.2866 15.8091Z" fill="#FF4C00"/>
<path d="M24.2546 15.7295C25.0413 15.4437 25.971 15.1465 26.3206 15.0691C26.3897 15.0538 26.4659 15.0395 26.5487 15.0262C26.6346 15.0026 26.708 14.984 26.7654 14.9713C28.2658 14.6403 33.1828 14.795 34.8405 15.2253C44.0814 17.6243 50.0439 27.1026 48.0846 36.2785C48.0559 36.4131 48.0252 36.5482 47.9926 36.6835C47.9845 36.7231 47.9762 36.7628 47.9678 36.8024C46.9024 41.8139 43.2205 47.3158 40.932 47.3158C38.1856 47.3158 37.8763 44.2393 39.84 36.4511C40.3761 34.3248 40.7684 32.2836 40.7115 31.9147C40.6244 31.3486 40.4365 31.4829 39.5037 32.7801C38.8956 33.6247 36.9625 36.7754 35.2077 39.7816C32.8265 43.8606 31.844 45.2723 31.3358 45.3462C30.3136 45.4945 29.9789 44.5614 30.4443 42.8603C30.6597 42.0726 31.6021 38.8204 32.5382 35.6335C33.4745 32.4465 34.1252 29.7255 33.984 29.5867C33.8416 29.4466 33.4286 29.7653 32.7973 30.4729C31.2232 32.3408 28.594 36.0996 25.5055 40.9539C24.3928 42.703 23.308 44.2998 22.6665 45.1512C22.129 45.9134 21.7387 46.4167 21.6086 46.4989C21.223 46.7423 20.9548 46.6943 20.574 46.3127C20.1001 45.8385 20.2123 45.3503 21.9954 40.1122C24.0912 33.9566 25.3321 28.7338 25.0292 27.3444C24.3175 24.0797 23.1473 23.4051 20.5692 24.7723C19.2175 25.489 18.2156 25.4065 18.2156 24.5791C18.2156 24.2024 18.772 23.7701 19.5853 23.4334C20.189 23.0954 21.0689 22.8055 21.9956 22.6789C24.6885 22.3107 26.6662 23.9247 27.1063 26.8489C27.3452 28.4373 26.4605 32.5687 24.8791 37.2497C24.7422 37.655 24.6173 38.0391 24.508 38.3882C24.1782 39.4418 24.5183 39.5779 25.1521 38.6739C25.7275 37.8534 26.4153 36.8574 27.1381 35.7955C29.3791 32.5031 31.0729 30.2791 32.3437 28.9852C33.4429 27.7968 34.2494 27.2411 34.8324 27.2411C36.2251 27.2411 36.4266 28.1154 35.7136 31.0642C35.3711 32.4794 34.5923 35.1009 33.9825 36.8897C33.3731 38.6784 32.912 40.1798 32.958 40.2257C33.004 40.2719 34.2358 38.3374 35.6948 35.9268C38.7897 30.8139 40.2227 29.1132 41.4363 29.1132C42.0282 29.1132 42.3794 29.3444 42.6346 29.9025C42.936 30.5624 42.7807 31.549 41.6883 35.9087C40.4321 40.9221 40.0277 44.4584 40.6656 44.8516C41.0701 45.1008 43.7442 42.0444 44.6076 40.3461C45.094 39.3893 45.479 38.4201 45.7687 37.448C48.5336 26.8426 40.3745 16.0904 28.8496 16.8692C27.5666 16.9558 26.3314 17.1846 25.1571 17.5383C17.5831 20.0582 12.7367 27.8807 14.4313 36.0401C14.9331 38.4557 16.6528 41.7982 18.4775 43.9034C19.872 45.5121 20.0163 45.8022 19.62 46.1976C19.5115 46.3057 19.4221 46.4697 19.3412 46.5998C19.2673 46.7184 19.1517 46.8333 19.0652 46.9199C18.3466 47.6395 17.408 47.1341 15.8051 45.1638C9.85483 37.8498 10.0967 27.6066 16.382 20.7384C17.1059 19.9475 16.5447 18.6733 15.4725 18.6733H12.9849C10.7446 18.6733 9.45062 18.676 8.6418 18.7407C8.4241 18.7582 8.20547 18.8075 8.02901 18.9361C7.90419 19.0271 7.79064 19.1374 7.65681 19.2708L7.57673 19.3506C7.13604 19.7897 6.88833 20.3862 6.88833 21.0083V32.7075C6.88833 40.3168 7.00978 45.6051 7.19259 45.9455C7.70063 46.8918 8.41871 47.0359 13.4619 47.2041L16.3081 47.3117C17.1069 47.3418 17.7389 47.9981 17.7389 48.7975V48.9258C17.7389 49.3548 17.391 49.7027 16.962 49.7027H12.3356C7.42652 49.7027 6.85473 49.6444 6.08491 49.0662C5.72462 48.7955 5.43385 48.5869 5.19909 48.3276C4.19418 47.2177 4.2156 45.1786 4.20298 33.357C4.19016 21.4537 4.17052 19.2892 5.24011 18.1282C5.49655 17.8499 5.8156 17.6292 6.21237 17.3459C6.67785 17.0133 6.99674 16.8284 7.96211 16.7084C8.88211 16.4682 10.6405 16.4165 15.653 16.3024C20.4456 16.1934 22.6862 16.0744 23.9511 15.8267C24.0601 15.796 24.1607 15.7636 24.2546 15.7295Z" fill="#FF4C00"/>
<path d="M41.9288 17.9385C41.6466 17.4767 41.7025 17.2682 42.2126 16.8825C42.2512 16.8533 42.2926 16.8259 42.3377 16.8003C42.365 16.7847 42.3916 16.768 42.4167 16.7491C42.9254 16.3663 43.923 16.2967 47.7381 16.3775C52.832 16.4852 53.6293 16.7151 54.9377 18.453C55.5375 19.2502 55.5672 19.8387 55.6464 32.5453C55.6673 35.9154 55.6815 38.4326 55.6798 40.3302C55.6842 46.3184 55.5619 46.7932 55.0925 47.5574C53.8532 49.5747 52.9423 49.8593 47.7167 49.8605C43.2542 49.8618 43.0409 49.8325 42.8381 49.1932C42.7466 48.9047 42.7814 48.5192 42.8423 48.3474C42.8654 48.2824 42.9005 48.2517 42.8847 48.1846C42.847 48.0245 42.8539 47.8283 42.9467 47.6926C42.9931 47.6247 43.0446 47.5562 43.09 47.5121C43.2362 47.3698 45.3757 47.2085 47.8442 47.1536C52.3218 47.054 52.3346 47.0515 53.0874 46.1782L53.2462 45.994C53.6124 45.5692 53.8138 45.027 53.8138 44.4662V33.4691C53.8138 20.3807 53.7496 19.713 52.428 19.0266C52.0428 18.8267 49.6952 18.6389 47.0143 18.5938C42.841 18.5237 42.2393 18.4461 41.9288 17.9385Z" fill="#FF4C00"/>
<path d="M20.0022 49.5885C20.0022 49.3405 20.0522 49.1085 20.1522 48.8925C20.2522 48.6725 20.3882 48.4845 20.5602 48.3285C20.7322 48.1725 20.9302 48.0585 21.1542 47.9865C21.3822 47.9105 21.6222 47.8945 21.8742 47.9385V48.4245C21.6902 48.3765 21.5142 48.3765 21.3462 48.4245C21.1782 48.4725 21.0282 48.5525 20.8962 48.6645C20.7682 48.7765 20.6662 48.9145 20.5902 49.0785C20.5142 49.2385 20.4762 49.4085 20.4762 49.5885C20.4762 49.7725 20.5142 49.9465 20.5902 50.1105C20.6662 50.2705 20.7682 50.4065 20.8962 50.5185C21.0282 50.6305 21.1782 50.7105 21.3462 50.7585C21.5142 50.8065 21.6902 50.8085 21.8742 50.7645V51.2505C21.6222 51.2865 21.3822 51.2685 21.1542 51.1965C20.9262 51.1205 20.7262 51.0065 20.5542 50.8545C20.3862 50.7025 20.2522 50.5165 20.1522 50.2965C20.0522 50.0765 20.0022 49.8405 20.0022 49.5885ZM24.2018 50.2725H23.7338V50.7285H24.2018V50.2725ZM23.9738 47.9385L25.4798 51.2505H24.9638L23.9738 48.9405L22.9718 51.2505H22.4618L23.9738 47.9385ZM27.2509 49.6725C27.3509 49.6725 27.4389 49.6545 27.5149 49.6185C27.5909 49.5825 27.6529 49.5345 27.7009 49.4745C27.7529 49.4145 27.7909 49.3485 27.8149 49.2765C27.8389 49.2005 27.8509 49.1245 27.8509 49.0485C27.8509 48.9685 27.8389 48.8905 27.8149 48.8145C27.7909 48.7385 27.7529 48.6725 27.7009 48.6165C27.6529 48.5565 27.5909 48.5105 27.5149 48.4785C27.4389 48.4425 27.3509 48.4245 27.2509 48.4245H26.5309L26.0449 47.9265H27.2509C27.4309 47.9265 27.5889 47.9585 27.7249 48.0225C27.8609 48.0865 27.9729 48.1725 28.0609 48.2805C28.1529 48.3845 28.2209 48.5045 28.2649 48.6405C28.3089 48.7725 28.3309 48.9085 28.3309 49.0485C28.3309 49.1845 28.3089 49.3185 28.2649 49.4505C28.2209 49.5785 28.1529 49.6945 28.0609 49.7985C27.9729 49.9025 27.8609 49.9865 27.7249 50.0505C27.5889 50.1145 27.4309 50.1465 27.2509 50.1465H26.5309V51.2505H26.0449V49.6725H27.2509ZM29.9058 51.2625V47.9265H31.3818V48.4245H30.3858V51.2625H29.9058ZM29.4138 48.4245H28.9038V47.9265H29.4138V48.4245ZM33.5765 50.7045C33.6685 50.6605 33.7445 50.6005 33.8045 50.5245C33.8685 50.4445 33.9005 50.3525 33.9005 50.2485V47.9385H34.3805V50.2605C34.3805 50.3885 34.3585 50.5045 34.3145 50.6085C34.2705 50.7085 34.2125 50.7985 34.1405 50.8785C34.0685 50.9585 33.9825 51.0265 33.8825 51.0825C33.7865 51.1385 33.6845 51.1805 33.5765 51.2085V50.7045ZM32.7245 51.2085C32.6165 51.1805 32.5145 51.1385 32.4185 51.0825C32.3265 51.0265 32.2445 50.9585 32.1725 50.8785C32.1045 50.7985 32.0485 50.7065 32.0045 50.6025C31.9645 50.4945 31.9445 50.3765 31.9445 50.2485V47.9385H32.4185V50.2605C32.4185 50.3685 32.4465 50.4585 32.5025 50.5305C32.5625 50.6025 32.6365 50.6605 32.7245 50.7045V51.2085ZM35.3465 49.5645H36.0905C36.1905 49.5645 36.2765 49.5485 36.3485 49.5165C36.4245 49.4805 36.4865 49.4365 36.5345 49.3845C36.5865 49.3285 36.6245 49.2665 36.6485 49.1985C36.6725 49.1305 36.6845 49.0625 36.6845 48.9945C36.6845 48.9225 36.6725 48.8525 36.6485 48.7845C36.6245 48.7125 36.5865 48.6505 36.5345 48.5985C36.4865 48.5465 36.4245 48.5045 36.3485 48.4725C36.2765 48.4405 36.1905 48.4245 36.0905 48.4245H35.4245L34.9385 47.9385L36.0905 47.9265C36.2705 47.9265 36.4265 47.9585 36.5585 48.0225C36.6945 48.0825 36.8065 48.1625 36.8945 48.2625C36.9865 48.3625 37.0545 48.4765 37.0985 48.6045C37.1465 48.7325 37.1705 48.8625 37.1705 48.9945C37.1705 49.1105 37.1525 49.2245 37.1165 49.3365C37.0805 49.4445 37.0265 49.5445 36.9545 49.6365C36.8825 49.7245 36.7925 49.8005 36.6845 49.8645C36.5805 49.9285 36.4565 49.9725 36.3125 49.9965L37.3565 51.2505H36.7445L35.3465 49.5645ZM38.2966 48.4245L37.8226 47.9385H39.8326V48.4245H38.2966ZM37.8226 51.2505V50.7645H39.8326V51.2505H37.8226ZM38.2966 49.8225L37.8226 49.3545H39.8086V49.8225H38.2966Z" fill="black"/>
</svg>
