<svg width="230" height="46" viewBox="0 0 230 46" fill="none" xmlns="http://www.w3.org/2000/svg">
<path d="M52.6194 21.2471V19.7065C52.6194 16.9451 50.3808 14.7065 47.6194 14.7065H43.2206M52.6194 26.0039V30.7156C52.6194 33.4771 50.3808 35.7156 47.6194 35.7156H25C22.2386 35.7156 20 33.4771 20 30.7156V30.3643M20 25.6075V19.7065C20 16.9451 22.2386 14.7065 25 14.7065H29.4321" stroke="black" stroke-width="2" stroke-linecap="round" stroke-linejoin="round"/>
<path d="M20 25.7642L29.9517 25.7642M52.6194 25.7642H42.9441" stroke="black" stroke-width="2" stroke-linecap="round" stroke-linejoin="round"/>
<path d="M43.2205 14.7067L42.2925 11.6948C42.0341 10.856 41.2589 10.2837 40.3812 10.2837H32.1071C31.1992 10.2837 30.4052 10.8952 30.1734 11.773L29.3987 14.7067" stroke="#FF4C00" stroke-width="2" stroke-linecap="round"/>
<circle cx="36.5859" cy="24.6582" r="6.74019" stroke="#FF4C00" stroke-width="2"/>
<path d="M72.9994 26.1058C72.9994 26.8192 72.8594 27.4758 72.5794 28.0758C72.3061 28.6692 71.9261 29.1825 71.4394 29.6158C70.9527 30.0492 70.3861 30.3858 69.7394 30.6258C69.0994 30.8592 68.4094 30.9758 67.6694 30.9758C67.2427 30.9758 66.8761 30.9192 66.5694 30.8058C66.2627 30.6925 66.0294 30.5325 65.8694 30.3258C65.7094 30.1192 65.6294 29.8725 65.6294 29.5858C65.6294 29.3125 65.7161 29.0758 65.8894 28.8758C66.0694 28.6692 66.3061 28.5658 66.5994 28.5658C66.7261 28.5658 66.8694 28.6225 67.0294 28.7358C67.1894 28.8492 67.3594 28.9825 67.5394 29.1358C67.7194 29.2825 67.8994 29.4125 68.0794 29.5258C68.2594 29.6392 68.4361 29.6958 68.6094 29.6958C68.9961 29.6958 69.3027 29.5325 69.5294 29.2058C69.7561 28.8725 69.8694 28.3058 69.8694 27.5058V18.2958L68.3194 17.7158V17.2858H74.4394V17.7158L72.9894 18.2958L72.9994 26.1058ZM82.6514 17.0158C83.6847 17.0158 84.6247 17.1825 85.4714 17.5158C86.3247 17.8425 87.0547 18.3125 87.6614 18.9258C88.2747 19.5392 88.7481 20.2725 89.0814 21.1258C89.4147 21.9792 89.5814 22.9292 89.5814 23.9758C89.5814 25.0092 89.4047 25.9558 89.0514 26.8158C88.6981 27.6692 88.1981 28.4092 87.5514 29.0358C86.9114 29.6558 86.1514 30.1358 85.2714 30.4758C84.3981 30.8092 83.4314 30.9758 82.3714 30.9758C81.3381 30.9758 80.3981 30.8125 79.5514 30.4858C78.7047 30.1525 77.9747 29.6825 77.3614 29.0758C76.7481 28.4625 76.2747 27.7292 75.9414 26.8758C75.6147 26.0158 75.4514 25.0658 75.4514 24.0258C75.4514 22.9858 75.6247 22.0392 75.9714 21.1858C76.3247 20.3258 76.8214 19.5858 77.4614 18.9658C78.1081 18.3458 78.8681 17.8658 79.7414 17.5258C80.6214 17.1858 81.5914 17.0158 82.6514 17.0158ZM82.6114 29.6758C83.3381 29.6758 83.9781 29.4892 84.5314 29.1158C85.0914 28.7425 85.5281 28.1792 85.8414 27.4258C86.1614 26.6725 86.3214 25.7258 86.3214 24.5858C86.3214 23.1992 86.1548 22.0425 85.8214 21.1158C85.4881 20.1892 85.0281 19.4925 84.4414 19.0258C83.8547 18.5525 83.1781 18.3158 82.4114 18.3158C81.6914 18.3158 81.0514 18.5025 80.4914 18.8758C79.9381 19.2492 79.5014 19.8125 79.1814 20.5658C78.8681 21.3192 78.7114 22.2692 78.7114 23.4158C78.7114 24.7958 78.8747 25.9525 79.2014 26.8858C79.5347 27.8125 79.9947 28.5092 80.5814 28.9758C81.1747 29.4425 81.8514 29.6758 82.6114 29.6758ZM95.3911 29.7058L96.8411 30.2858V30.7158H90.8111V30.2858L92.2611 29.7058V18.2958L90.8111 17.7158V17.2858H96.8411V17.7158L95.3911 18.2958V29.7058ZM104.601 29.7058L106.061 30.2858V30.7158H100.021V30.2858L101.481 29.7058V18.2958L100.021 17.7158V17.2858H106.061V17.7158L104.601 18.2958V29.7058ZM93.6611 24.4558V23.2458H103.201V24.4558H93.6611ZM108.903 29.7058V18.4858L107.253 17.6658V17.2858H112.283L119.543 27.4858L118.743 27.9858V18.2958L117.133 17.7158V17.2858H121.363V17.7158L119.913 18.2958V30.7858H118.003L109.583 18.7258L110.063 18.3758V29.7058L111.673 30.2858V30.7158H107.443V30.2858L108.903 29.7058ZM123.909 27.6458C124.396 27.6458 124.796 27.8058 125.109 28.1258C125.423 28.4458 125.579 28.8325 125.579 29.2858C125.579 29.7392 125.423 30.1258 125.109 30.4458C124.796 30.7658 124.396 30.9258 123.909 30.9258C123.423 30.9258 123.019 30.7658 122.699 30.4458C122.386 30.1258 122.229 29.7392 122.229 29.2858C122.229 28.8325 122.386 28.4458 122.699 28.1258C123.019 27.8058 123.423 27.6458 123.909 27.6458Z" fill="#FF4C00"/>
<path d="M139.563 17.8158L137.983 17.5558L139.253 16.5758H139.603L140.393 21.2758L139.783 21.4158L137.623 18.1958L138.323 18.9958C137.969 18.7358 137.596 18.5392 137.203 18.4058C136.816 18.2725 136.419 18.2058 136.013 18.2058C135.186 18.2058 134.583 18.3658 134.203 18.6858C133.829 18.9992 133.643 19.4225 133.643 19.9558C133.643 20.3225 133.739 20.6325 133.933 20.8858C134.126 21.1325 134.386 21.3458 134.713 21.5258C135.046 21.7058 135.419 21.8692 135.833 22.0158C136.246 22.1558 136.676 22.3025 137.123 22.4558C137.569 22.6158 138.016 22.7992 138.463 23.0058C138.909 23.2125 139.316 23.4692 139.683 23.7758C140.056 24.0758 140.353 24.4558 140.573 24.9158C140.799 25.3692 140.913 25.9192 140.913 26.5658C140.913 27.5325 140.669 28.3425 140.183 28.9958C139.703 29.6492 139.049 30.1425 138.223 30.4758C137.396 30.8092 136.459 30.9758 135.413 30.9758C134.699 30.9758 134.056 30.9325 133.483 30.8458C132.916 30.7592 132.319 30.6025 131.693 30.3758L130.823 26.5058H131.443L134.433 30.3758L132.153 28.9458C132.686 29.2258 133.163 29.4258 133.583 29.5458C134.009 29.6658 134.459 29.7258 134.933 29.7258C135.659 29.7258 136.253 29.6458 136.713 29.4858C137.179 29.3258 137.526 29.0892 137.753 28.7758C137.979 28.4558 138.093 28.0658 138.093 27.6058C138.093 27.1658 137.976 26.8025 137.743 26.5158C137.509 26.2225 137.203 25.9792 136.823 25.7858C136.449 25.5925 136.036 25.4258 135.583 25.2858C135.136 25.1392 134.699 24.9858 134.273 24.8258C133.846 24.6658 133.436 24.4858 133.043 24.2858C132.656 24.0792 132.309 23.8325 132.003 23.5458C131.703 23.2525 131.466 22.8958 131.293 22.4758C131.119 22.0558 131.033 21.5492 131.033 20.9558C131.033 20.1558 131.239 19.4625 131.653 18.8758C132.066 18.2892 132.653 17.8325 133.413 17.5058C134.173 17.1792 135.069 17.0158 136.103 17.0158C136.743 17.0158 137.336 17.0792 137.883 17.2058C138.429 17.3258 138.989 17.5292 139.563 17.8158ZM146.828 17.9258H149.948V29.7058L151.408 30.2858V30.7158H145.368V30.2858L146.828 29.7058V17.9258ZM153.588 18.4958H142.938L144.208 18.1558L142.438 21.3458L141.818 21.2158L142.248 16.5558H142.608L144.328 17.5258L143.168 17.2858H153.358L152.548 17.5258L154.268 16.5558H154.628L155.058 21.2158L154.448 21.3458L152.678 18.1558L153.588 18.4958ZM167.845 25.3658V18.2958L166.285 17.7158V17.2858H170.465V17.7158L169.015 18.2958V25.3058C169.015 26.5458 168.795 27.5892 168.355 28.4358C167.915 29.2758 167.272 29.9092 166.425 30.3358C165.578 30.7625 164.538 30.9758 163.305 30.9758C161.978 30.9758 160.862 30.7658 159.955 30.3458C159.048 29.9258 158.362 29.2892 157.895 28.4358C157.435 27.5825 157.205 26.5192 157.205 25.2458V18.2958L155.745 17.7158V17.2858H161.785V17.7158L160.325 18.2958V25.2558C160.325 26.0958 160.462 26.7958 160.735 27.3558C161.015 27.9158 161.428 28.3358 161.975 28.6158C162.528 28.8958 163.215 29.0358 164.035 29.0358C164.842 29.0358 165.528 28.8992 166.095 28.6258C166.662 28.3458 167.095 27.9325 167.395 27.3858C167.695 26.8392 167.845 26.1658 167.845 25.3658ZM182.404 23.8258C182.404 21.9858 181.954 20.6392 181.054 19.7858C180.16 18.9258 178.934 18.4958 177.374 18.4958H174.624L174.364 17.2858H177.854C179.6 17.2858 181.05 17.5158 182.204 17.9758C183.364 18.4358 184.23 19.1358 184.804 20.0758C185.384 21.0092 185.674 22.1858 185.674 23.6058C185.674 25.1058 185.334 26.3858 184.654 27.4458C183.974 28.5058 183.044 29.3158 181.864 29.8758C180.684 30.4358 179.354 30.7158 177.874 30.7158H174.364L174.624 29.5058H177.554C178.527 29.5058 179.377 29.3125 180.104 28.9258C180.83 28.5392 181.394 27.9292 181.794 27.0958C182.2 26.2558 182.404 25.1658 182.404 23.8258ZM171.534 30.7158V30.2858L172.984 29.7058V18.2958L171.534 17.7158V17.2858H176.114V30.7158H171.534ZM192.935 30.2858V30.7158H186.905V30.2858L188.355 29.7058V18.2958L186.905 17.7158V17.2858H192.935V17.7158L191.485 18.2958V29.7058L192.935 30.2858ZM201.362 17.0158C202.396 17.0158 203.336 17.1825 204.182 17.5158C205.036 17.8425 205.766 18.3125 206.372 18.9258C206.986 19.5392 207.459 20.2725 207.792 21.1258C208.126 21.9792 208.292 22.9292 208.292 23.9758C208.292 25.0092 208.116 25.9558 207.762 26.8158C207.409 27.6692 206.909 28.4092 206.262 29.0358C205.622 29.6558 204.862 30.1358 203.982 30.4758C203.109 30.8092 202.142 30.9758 201.082 30.9758C200.049 30.9758 199.109 30.8125 198.262 30.4858C197.416 30.1525 196.686 29.6825 196.072 29.0758C195.459 28.4625 194.986 27.7292 194.652 26.8758C194.326 26.0158 194.162 25.0658 194.162 24.0258C194.162 22.9858 194.336 22.0392 194.682 21.1858C195.036 20.3258 195.532 19.5858 196.172 18.9658C196.819 18.3458 197.579 17.8658 198.452 17.5258C199.332 17.1858 200.302 17.0158 201.362 17.0158ZM201.322 29.6758C202.049 29.6758 202.689 29.4892 203.242 29.1158C203.802 28.7425 204.239 28.1792 204.552 27.4258C204.872 26.6725 205.032 25.7258 205.032 24.5858C205.032 23.1992 204.866 22.0425 204.532 21.1158C204.199 20.1892 203.739 19.4925 203.152 19.0258C202.566 18.5525 201.889 18.3158 201.122 18.3158C200.402 18.3158 199.762 18.5025 199.202 18.8758C198.649 19.2492 198.212 19.8125 197.892 20.5658C197.579 21.3192 197.422 22.2692 197.422 23.4158C197.422 24.7958 197.586 25.9525 197.912 26.8858C198.246 27.8125 198.706 28.5092 199.292 28.9758C199.886 29.4425 200.562 29.6758 201.322 29.6758Z" fill="black"/>
</svg>
