<svg width="60" height="60" viewBox="0 0 60 60" fill="none" xmlns="http://www.w3.org/2000/svg">
<path d="M30 16.875C27.4041 16.875 24.8665 17.6448 22.7081 19.087C20.5498 20.5292 18.8675 22.579 17.8741 24.9773C16.8807 27.3756 16.6208 30.0146 17.1272 32.5606C17.6336 35.1066 18.8837 37.4452 20.7192 39.2808C22.5548 41.1163 24.8934 42.3664 27.4394 42.8728C29.9854 43.3792 32.6244 43.1193 35.0227 42.1259C37.421 41.1325 39.4709 39.4503 40.913 37.2919C42.3552 35.1335 43.125 32.5959 43.125 30C43.1213 26.5202 41.7373 23.1839 39.2767 20.7233C36.8161 18.2627 33.4798 16.8787 30 16.875ZM30 39.375C28.1458 39.375 26.3332 38.8252 24.7915 37.795C23.2498 36.7649 22.0482 35.3007 21.3386 33.5877C20.6291 31.8746 20.4434 29.9896 20.8051 28.171C21.1669 26.3525 22.0598 24.682 23.3709 23.3709C24.682 22.0598 26.3525 21.1669 28.171 20.8051C29.9896 20.4434 31.8746 20.6291 33.5877 21.3386C35.3007 22.0482 36.7649 23.2498 37.795 24.7915C38.8252 26.3332 39.375 28.1458 39.375 30C39.3723 32.4856 38.3837 34.8685 36.6261 36.6261C34.8686 38.3837 32.4856 39.3723 30 39.375Z" fill="black"/>
<path d="M56.25 23.4375H49.5347C49.2349 22.5436 48.8737 21.6716 48.4537 20.8275L53.2022 16.0781C53.5537 15.7265 53.7512 15.2497 53.7512 14.7525C53.7512 14.2553 53.5537 13.7785 53.2022 13.4269L46.5731 6.79781C46.2215 6.4463 45.7447 6.24884 45.2475 6.24884C44.7503 6.24884 44.2735 6.4463 43.9219 6.79781L39.1734 11.5453C38.329 11.1257 37.4566 10.7648 36.5625 10.4653V3.75C36.5625 3.25272 36.365 2.77581 36.0133 2.42417C35.6617 2.07254 35.1848 1.875 34.6875 1.875H25.3125C24.8152 1.875 24.3383 2.07254 23.9867 2.42417C23.635 2.77581 23.4375 3.25272 23.4375 3.75V10.4653C22.5434 10.7648 21.671 11.1257 20.8266 11.5453L16.0781 6.79781C15.7265 6.4463 15.2497 6.24884 14.7525 6.24884C14.2553 6.24884 13.7785 6.4463 13.4269 6.79781L6.79781 13.4269C6.4463 13.7785 6.24884 14.2553 6.24884 14.7525C6.24884 15.2497 6.4463 15.7265 6.79781 16.0781L11.5463 20.8275C11.1263 21.6716 10.7651 22.5436 10.4653 23.4375H3.75C3.25272 23.4375 2.77581 23.635 2.42417 23.9867C2.07254 24.3383 1.875 24.8152 1.875 25.3125V34.6875C1.875 35.1848 2.07254 35.6617 2.42417 36.0133C2.77581 36.365 3.25272 36.5625 3.75 36.5625H10.4653C10.765 37.4562 11.1259 38.3283 11.5453 39.1725L6.79781 43.9219C6.4463 44.2735 6.24884 44.7503 6.24884 45.2475C6.24884 45.7447 6.4463 46.2215 6.79781 46.5731L13.4269 53.2022C13.7785 53.5537 14.2553 53.7512 14.7525 53.7512C15.2497 53.7512 15.7265 53.5537 16.0781 53.2022L20.8275 48.4537C21.6716 48.8737 22.5436 49.2349 23.4375 49.5347V56.25C23.4375 56.7473 23.635 57.2242 23.9867 57.5758C24.3383 57.9275 24.8152 58.125 25.3125 58.125H34.6875C35.1848 58.125 35.6617 57.9275 36.0133 57.5758C36.365 57.2242 36.5625 56.7473 36.5625 56.25V49.5347C37.4564 49.2349 38.3284 48.8737 39.1725 48.4537L43.9219 53.2022C44.2735 53.5537 44.7503 53.7512 45.2475 53.7512C45.7447 53.7512 46.2215 53.5537 46.5731 53.2022L53.2022 46.5731C53.5537 46.2215 53.7512 45.7447 53.7512 45.2475C53.7512 44.7503 53.5537 44.2735 53.2022 43.9219L48.4547 39.1725C48.8741 38.3283 49.235 37.4562 49.5347 36.5625H56.25C56.7473 36.5625 57.2242 36.365 57.5758 36.0133C57.9275 35.6617 58.125 35.1848 58.125 34.6875V25.3125C58.125 24.8152 57.9275 24.3383 57.5758 23.9867C57.2242 23.635 56.7473 23.4375 56.25 23.4375ZM54.375 32.8125H48.1359C47.7202 32.8124 47.3162 32.9505 46.9875 33.205C46.6587 33.4596 46.4239 33.8162 46.32 34.2188C45.9279 35.7414 45.3236 37.2014 44.5247 38.5556C44.313 38.9138 44.2265 39.3323 44.2788 39.7451C44.3311 40.1578 44.5192 40.5415 44.8134 40.8356L49.2253 45.2475L45.2475 49.2253L40.8356 44.8125C40.5417 44.5183 40.1582 44.3302 39.7457 44.2777C39.3331 44.2253 38.9148 44.3115 38.5566 44.5228C37.2021 45.3225 35.7419 45.9275 34.2188 46.32C33.8162 46.4239 33.4596 46.6587 33.205 46.9875C32.9505 47.3162 32.8124 47.7202 32.8125 48.1359V54.375H27.1875V48.1359C27.1876 47.7202 27.0495 47.3162 26.795 46.9875C26.5404 46.6587 26.1838 46.4239 25.7812 46.32C24.2582 45.9278 22.7979 45.3231 21.4434 44.5238C21.0852 44.3124 20.6669 44.2262 20.2543 44.2787C19.8418 44.3311 19.4583 44.5192 19.1644 44.8134L14.7525 49.2253L10.7747 45.2475L15.1875 40.8356C15.4818 40.5415 15.6699 40.1578 15.7221 39.7451C15.7744 39.3323 15.6879 38.9138 15.4762 38.5556C14.677 37.2014 14.0724 35.7415 13.68 34.2188C13.5761 33.8162 13.3413 33.4596 13.0125 33.205C12.6838 32.9505 12.2798 32.8124 11.8641 32.8125H5.625V27.1875H11.8641C12.2798 27.1876 12.6838 27.0495 13.0125 26.795C13.3413 26.5404 13.5761 26.1838 13.68 25.7812C14.0722 24.2582 14.6769 22.7979 15.4762 21.4434C15.6876 21.0852 15.7738 20.6669 15.7213 20.2543C15.6689 19.8418 15.4808 19.4583 15.1866 19.1644L10.7747 14.7525L14.7525 10.7747L19.1644 15.1875C19.4585 15.4818 19.8422 15.6699 20.2549 15.7221C20.6677 15.7744 21.0862 15.6879 21.4444 15.4762C22.7984 14.6766 24.2584 14.0719 25.7812 13.68C26.1838 13.5761 26.5404 13.3413 26.795 13.0125C27.0495 12.6838 27.1876 12.2798 27.1875 11.8641V5.625H32.8125V11.8641C32.8124 12.2798 32.9505 12.6838 33.205 13.0125C33.4596 13.3413 33.8162 13.5761 34.2188 13.68C35.7416 14.0716 37.2016 14.676 38.5556 15.4753C38.9138 15.687 39.3323 15.7735 39.7451 15.7212C40.1578 15.6689 40.5415 15.4808 40.8356 15.1866L45.2475 10.7747L49.2253 14.7525L44.8125 19.1644C44.5183 19.4583 44.3302 19.8418 44.2777 20.2543C44.2253 20.6669 44.3115 21.0852 44.5228 21.4434C45.3225 22.7979 45.9275 24.2581 46.32 25.7812C46.4239 26.1838 46.6587 26.5404 46.9875 26.795C47.3162 27.0495 47.7202 27.1876 48.1359 27.1875H54.375V32.8125Z" fill="black"/>
<path d="M28.125 28.125H24.375V31.875H28.125V28.125Z" fill="black"/>
<path d="M35.625 28.125H31.875V31.875H35.625V28.125Z" fill="black"/>
</svg>
