<svg width="57" height="57" viewBox="0 0 57 57" fill="none" xmlns="http://www.w3.org/2000/svg">
<path d="M28.4731 16.0701C28.8865 16.0701 29.2829 15.9059 29.5752 15.6136C29.8675 15.3213 30.0317 14.9249 30.0317 14.5116V10.4868C30.0317 10.0735 29.8675 9.67702 29.5752 9.38472C29.2829 9.09243 28.8865 8.92822 28.4731 8.92822C28.0598 8.92822 27.6633 9.09243 27.3711 9.38472C27.0788 9.67702 26.9146 10.0735 26.9146 10.4868V14.5116C26.9146 14.9249 27.0788 15.3213 27.3711 15.6136C27.6633 15.9059 28.0598 16.0701 28.4731 16.0701Z" fill="black"/>
<path d="M46.5135 26.9146H42.4888C42.0754 26.9146 41.679 27.0788 41.3867 27.3711C41.0944 27.6633 40.9302 28.0598 40.9302 28.4731C40.9302 28.8865 41.0944 29.2829 41.3867 29.5752C41.679 29.8675 42.0754 30.0317 42.4888 30.0317H46.5135C46.9269 30.0317 47.3233 29.8675 47.6156 29.5752C47.9079 29.2829 48.0721 28.8865 48.0721 28.4731C48.0721 28.0598 47.9079 27.6633 47.6156 27.3711C47.3233 27.0788 46.9269 26.9146 46.5135 26.9146Z" fill="black"/>
<path d="M14.5111 26.9146H10.4863C10.073 26.9146 9.67653 27.0788 9.38424 27.3711C9.09194 27.6633 8.92773 28.0598 8.92773 28.4731C8.92773 28.8865 9.09194 29.2829 9.38424 29.5752C9.67653 29.8675 10.073 30.0317 10.4863 30.0317H14.5111C14.9244 30.0317 15.3209 29.8675 15.6132 29.5752C15.9054 29.2829 16.0697 28.8865 16.0697 28.4731C16.0697 28.0598 15.9054 27.6633 15.6132 27.3711C15.3209 27.0788 14.9244 26.9146 14.5111 26.9146Z" fill="black"/>
<path d="M2.77686 10.8489C2.98153 10.8489 3.18421 10.8085 3.3733 10.7302C3.5624 10.6519 3.73422 10.5371 3.87895 10.3924C4.02368 10.2476 4.13848 10.0758 4.21681 9.88671C4.29514 9.69761 4.33545 9.49494 4.33545 9.29026V4.79492H8.83034C9.24371 4.79492 9.64014 4.63071 9.93244 4.33842C10.2247 4.04613 10.3889 3.64969 10.3889 3.23633C10.3889 2.82296 10.2247 2.42653 9.93244 2.13424C9.64014 1.84194 9.24371 1.67773 8.83034 1.67773H2.77686C2.36349 1.67773 1.96706 1.84194 1.67476 2.13424C1.38247 2.42653 1.21826 2.82296 1.21826 3.23633V9.29026C1.21826 9.70363 1.38247 10.1001 1.67476 10.3924C1.96706 10.6846 2.36349 10.8489 2.77686 10.8489Z" fill="black"/>
<path d="M54.2236 1.67773H48.1692C47.7558 1.67773 47.3594 1.84194 47.0671 2.13424C46.7748 2.42653 46.6106 2.82296 46.6106 3.23633C46.6106 3.64969 46.7748 4.04613 47.0671 4.33842C47.3594 4.63071 47.7558 4.79492 48.1692 4.79492H52.665V9.29026C52.665 9.70363 52.8292 10.1001 53.1215 10.3924C53.4138 10.6846 53.8102 10.8489 54.2236 10.8489C54.6369 10.8489 55.0334 10.6846 55.3257 10.3924C55.618 10.1001 55.7822 9.70363 55.7822 9.29026V3.23633C55.7822 2.82296 55.618 2.42653 55.3257 2.13424C55.0334 1.84194 54.6369 1.67773 54.2236 1.67773Z" fill="black"/>
<path d="M8.83034 52.4529H4.33545V47.9575C4.33545 47.5442 4.17124 47.1477 3.87895 46.8554C3.58665 46.5631 3.19022 46.3989 2.77686 46.3989C2.36349 46.3989 1.96706 46.5631 1.67476 46.8554C1.38247 47.1477 1.21826 47.5442 1.21826 47.9575V54.0115C1.21826 54.4248 1.38247 54.8213 1.67476 55.1135C1.96706 55.4058 2.36349 55.57 2.77686 55.57H8.83034C9.24371 55.57 9.64014 55.4058 9.93244 55.1135C10.2247 54.8213 10.3889 54.4248 10.3889 54.0115C10.3889 53.5981 10.2247 53.2017 9.93244 52.9094C9.64014 52.6171 9.24371 52.4529 8.83034 52.4529Z" fill="black"/>
<path d="M54.2236 46.3989C53.8102 46.3989 53.4138 46.5631 53.1215 46.8554C52.8292 47.1477 52.665 47.5442 52.665 47.9575V52.4529H48.1692C47.7558 52.4529 47.3594 52.6171 47.0671 52.9094C46.7748 53.2017 46.6106 53.5981 46.6106 54.0115C46.6106 54.4248 46.7748 54.8213 47.0671 55.1135C47.3594 55.4058 47.7558 55.57 48.1692 55.57H54.2236C54.6369 55.57 55.0334 55.4058 55.3257 55.1135C55.618 54.8213 55.7822 54.4248 55.7822 54.0115V47.9575C55.7822 47.5442 55.618 47.1477 55.3257 46.8554C55.0334 46.5631 54.6369 46.3989 54.2236 46.3989Z" fill="black"/>
<path d="M28.4731 40.9302C28.0598 40.9302 27.6633 41.0944 27.3711 41.3867C27.0788 41.679 26.9146 42.0754 26.9146 42.4888V46.5136C26.9146 46.927 27.0788 47.3234 27.3711 47.6157C27.6633 47.908 28.0598 48.0722 28.4731 48.0722C28.8865 48.0722 29.2829 47.908 29.5752 47.6157C29.8675 47.3234 30.0317 46.927 30.0317 46.5136V42.4888C30.0317 42.0754 29.8675 41.679 29.5752 41.3867C29.2829 41.0944 28.8865 40.9302 28.4731 40.9302Z" fill="black"/>
<path d="M28.4999 3.43457C23.5424 3.43457 18.6962 4.90464 14.5742 7.65887C10.4522 10.4131 7.23951 14.3278 5.34235 18.9079C3.44519 23.4881 2.94881 28.5279 3.91596 33.3902C4.88311 38.2524 7.27037 42.7187 10.7758 46.2241C14.2813 49.7296 18.7476 52.1169 23.6098 53.0841C28.472 54.0512 33.5119 53.5549 38.092 51.6577C42.6722 49.7606 46.5869 46.5479 49.3411 42.4259C52.0954 38.3039 53.5655 33.4577 53.5655 28.5002C53.5655 25.2086 52.9172 21.9491 51.6575 18.908C50.3979 15.8669 48.5516 13.1037 46.224 10.7761C43.8964 8.44855 41.1332 6.60222 38.0921 5.34256C35.051 4.08289 31.7916 3.43456 28.4999 3.43457ZM46.5135 32.2587H44.0256C43.3337 35.1125 41.8698 37.7208 39.7943 39.7981C37.7187 41.8753 35.1116 43.3414 32.2583 44.0357V46.5138C32.2583 47.5177 31.8596 48.4805 31.1497 49.1903C30.4398 49.9002 29.4771 50.299 28.4732 50.299C27.4693 50.299 26.5065 49.9002 25.7967 49.1903C25.0868 48.4805 24.688 47.5177 24.688 46.5138V44.029C21.8406 43.3309 19.2397 41.8639 17.1692 39.7882C15.0988 37.7125 13.6385 35.1079 12.9476 32.2587H10.4865C9.4826 32.2587 8.51983 31.8599 7.80997 31.15C7.10012 30.4402 6.70133 29.4774 6.70133 28.4735C6.70133 27.4696 7.10012 26.5069 7.80997 25.797C8.51983 25.0871 9.4826 24.6884 10.4865 24.6884H12.9614C13.6597 21.8507 15.1218 19.2585 17.1891 17.193C19.2563 15.1275 21.8498 13.6676 24.688 12.9717V10.4869C24.688 9.48301 25.0868 8.52024 25.7967 7.81039C26.5065 7.10053 27.4693 6.70174 28.4732 6.70174C29.4771 6.70174 30.4398 7.10053 31.1497 7.81039C31.8596 8.52024 32.2583 9.48301 32.2583 10.4869V12.9651C35.1023 13.6573 37.702 15.1162 39.7744 17.1833C41.8467 19.2503 43.3124 21.8462 44.0119 24.6884H46.5135C47.5174 24.6884 48.4802 25.0871 49.19 25.797C49.8999 26.5069 50.2987 27.4696 50.2987 28.4735C50.2987 29.4774 49.8999 30.4402 49.19 31.15C48.4802 31.8599 47.5174 32.2587 46.5135 32.2587Z" fill="black"/>
<path d="M37.123 33.9442C36.2011 31.9191 34.5431 30.3206 32.4857 29.4732C32.3316 29.4071 32.2006 29.2969 32.1089 29.1565C32.0172 29.0161 31.969 28.8517 31.9704 28.684V28.6751C31.9723 28.5564 31.9978 28.4392 32.0454 28.3304C32.093 28.2215 32.1617 28.1233 32.2477 28.0413C33.0089 27.2978 33.5315 26.3444 33.7488 25.3027C33.966 24.261 33.8681 23.1782 33.4675 22.1924C33.0668 21.2066 32.3817 20.3625 31.4993 19.7676C30.617 19.1728 29.5775 18.8542 28.5134 18.8525C27.4493 18.8509 26.4088 19.1662 25.5246 19.7582C24.6405 20.3503 23.9526 21.1923 23.5489 22.1769C23.1452 23.1614 23.0439 24.2439 23.2579 25.2863C23.4718 26.3286 23.9914 27.2837 24.7504 28.0295C24.8381 28.1124 24.9081 28.2122 24.9563 28.3228C25.0045 28.4334 25.0298 28.5527 25.0307 28.6734V28.6894C25.0308 28.8557 24.9821 29.0184 24.8906 29.1573C24.7992 29.2962 24.669 29.4053 24.5161 29.4709C22.4532 30.3219 20.7926 31.9278 19.873 33.9611C19.6307 34.4742 19.4313 35.0065 19.277 35.5526C19.2013 35.8265 19.1975 36.1153 19.266 36.3911C19.3345 36.6669 19.4731 36.9203 19.6682 37.1269C21.1913 38.742 23.1298 39.9065 25.2711 40.4924C25.6081 39.945 26.0797 39.4931 26.641 39.1799C27.2023 38.8667 27.8346 38.7026 28.4774 38.7033C29.1201 38.704 29.752 38.8695 30.3126 39.1839C30.8733 39.4983 31.3439 39.9512 31.6797 40.4993C33.8442 39.9119 35.8019 38.7323 37.3329 37.0932C37.5263 36.8864 37.6632 36.6333 37.7307 36.3583C37.7981 36.0832 37.7937 35.7955 37.7179 35.5226C37.5642 34.9807 37.3652 34.4527 37.123 33.9442Z" fill="black"/>
</svg>
