<svg width="174" height="43" viewBox="0 0 174 43" fill="none" xmlns="http://www.w3.org/2000/svg">
<path d="M20.1779 33.4132C19.8416 32.9205 19.3688 32.4933 18.7594 32.1314C18.1501 31.7696 17.4757 31.5002 16.7363 31.3234C16.0071 31.134 15.2507 31.0161 14.4673 30.9697C12.1431 30.8621 9.93108 30.3366 7.83122 29.3932C7.65199 29.3198 7.45107 29.1455 7.22845 28.8704C7.00583 28.5952 6.88071 28.3216 6.85309 28.0496C6.75181 27.0521 6.81489 26.038 7.04233 25.0071C7.27995 23.9638 7.63069 23.1323 8.09455 22.5126C8.83781 21.4866 10.2619 20.5118 12.3669 19.588C14.4832 18.6631 16.9072 18.062 19.6389 17.7846C21.2711 17.6189 22.542 17.6158 23.4514 17.7754C24.3722 17.9339 24.8591 18.2738 24.912 18.7952C24.9983 19.6453 24.946 20.3149 24.7552 20.8038C24.5757 21.2915 24.358 21.6285 24.102 21.8149C23.8563 21.9887 23.4123 22.2399 22.77 22.5685C22.0812 22.8904 21.4843 23.2144 20.9791 23.5405C20.4854 23.8655 20.0641 24.1717 19.7154 24.459C19.3666 24.7463 19.1469 24.8946 19.0562 24.9038C18.9429 24.9153 18.8816 24.8758 18.8724 24.7851C18.8528 24.5924 19.0219 24.2832 19.3794 23.8575C19.7472 23.4194 20.2109 23.023 20.7704 22.6685C21.3604 22.2765 21.6508 22.0351 21.6416 21.9444C21.6266 21.7971 21.2735 21.7585 20.582 21.8287C18.4851 22.0416 16.5658 22.4254 14.8242 22.9802C13.0826 23.5349 11.7271 24.1707 10.7577 24.8875C9.79975 25.6032 9.35298 26.2784 9.41743 26.9132C9.45771 27.3099 9.69618 27.572 10.1328 27.6994C10.5797 27.8144 11.5481 27.9909 13.0381 28.229C14.5281 28.467 15.8708 28.7773 17.0663 29.1598C18.7812 29.6957 20.074 30.3031 20.9445 30.982C21.8151 31.6608 22.2981 32.4707 22.3936 33.4115C22.4592 34.0576 22.3667 34.7255 22.1161 35.4151C21.8757 36.0923 21.4827 36.7334 20.9372 37.3385C20.3917 37.9435 19.7457 38.4615 18.9993 38.8923C18.3593 39.2435 17.5419 39.5957 16.547 39.9486C15.5635 40.3004 14.4836 40.6047 13.3073 40.8616C12.1434 41.1286 11.023 41.3168 9.94622 41.4262C7.96261 41.6276 6.34539 41.6028 5.09457 41.3519C3.85509 41.0999 3.19679 40.5941 3.11968 39.8347C3.08515 39.4946 3.23567 38.9468 3.57122 38.1913C3.90562 37.4244 4.33787 36.8881 4.86796 36.5823C5.3358 36.3402 5.79527 36.1847 6.24636 36.116C6.69631 36.036 6.92819 36.064 6.942 36.2C6.94545 36.234 6.9319 36.2697 6.90135 36.3072C6.87079 36.3446 6.834 36.377 6.79096 36.4043C6.74792 36.4315 6.70489 36.4588 6.66185 36.4861C6.44436 36.5998 6.26481 36.6925 6.12321 36.7641C5.99179 36.8232 5.88362 36.8858 5.7987 36.9516C5.72396 37.005 5.69119 37.0771 5.7004 37.1678C5.72457 37.4058 6.90982 37.4057 9.25615 37.1675C11.2964 36.9603 12.9609 36.7169 14.2494 36.4372C15.538 36.1575 16.6614 35.7743 17.6198 35.2876C18.5781 34.8009 19.4308 34.1761 20.1779 33.4132ZM26.727 29.2268C28.2911 27.4876 29.845 26.156 31.3888 25.232C32.9326 24.308 34.1465 23.8011 35.0307 23.7113C35.2687 23.6871 35.5001 23.7667 35.7248 23.95C35.9484 24.122 36.1301 24.3326 36.27 24.5818C36.4211 24.8298 36.503 25.0162 36.5157 25.1409C36.5364 25.3449 36.4726 25.506 36.3243 25.6241C36.1748 25.7309 35.9086 25.8725 35.5257 26.0488C35.6234 26.2221 35.749 26.4441 35.9025 26.7148C36.0559 26.9855 36.1759 27.2081 36.2623 27.3825C36.3476 27.5457 36.3971 27.6952 36.4109 27.8312C36.4386 28.1033 36.2126 28.6416 35.7332 29.4461C35.2639 30.2381 34.9338 30.8213 34.7428 31.1957C34.5631 31.5689 34.4991 32.0106 34.5509 32.5207C34.6361 33.3594 35.064 33.7397 35.8348 33.6615C36.6283 33.5809 37.7941 32.7124 39.3322 31.0561L39.4375 32.0932C36.8932 35.5695 35.0032 37.3704 33.7677 37.4958C33.3257 37.5407 32.9933 37.4256 32.7707 37.1504C32.5606 36.8855 32.4267 36.4696 32.3692 35.9029C32.2783 35.0074 32.4695 33.6768 32.943 31.9109C31.4745 33.9152 30.3776 35.3493 29.6523 36.2131C28.9257 37.0656 28.3018 37.5183 27.7804 37.5712C27.531 37.5966 27.1974 37.4128 26.7796 37.0201C26.3618 36.6274 25.9711 36.1059 25.6073 35.4557C25.2537 34.7931 25.0395 34.0933 24.9647 33.3566C24.9106 32.8238 24.9168 32.3766 24.9831 32.0148C25.0483 31.6418 25.2092 31.2532 25.466 30.8493C25.7227 30.4453 26.143 29.9045 26.727 29.2268ZM34.6812 26.5296C31.8711 28.1777 29.8847 29.536 28.7221 30.6045C27.5707 31.6719 27.0457 32.7044 27.147 33.7019C27.1838 34.0646 27.2767 34.3586 27.4255 34.584C27.5732 34.798 27.7548 34.8941 27.9701 34.8723C28.0948 34.8596 28.3078 34.7578 28.609 34.5669C29.7279 33.7433 30.7234 32.7203 31.5956 31.498C32.4666 30.2644 33.4952 28.6083 34.6812 26.5296ZM50.3399 26.7949C48.5705 29.2191 47.7301 30.8676 47.8188 31.7404C47.8682 32.2278 48.0914 32.4513 48.4881 32.4111C48.8168 32.3777 49.2246 32.1645 49.7115 31.7715C50.2085 31.366 50.9733 30.6643 52.0057 29.6662L52.1248 30.8394C50.6763 32.5897 49.5571 33.86 48.767 34.6502C47.9769 35.4404 47.3098 35.8632 46.7657 35.9184C45.8362 36.0128 45.3093 35.4479 45.185 34.2237C45.1482 33.861 45.1686 33.4982 45.2463 33.1353C45.324 32.7724 45.4402 32.3942 45.5949 32.0005C45.7598 31.5944 46.0106 31.0193 46.3473 30.2751C46.6828 29.5195 47.0715 28.667 47.5134 27.7174C46.9006 28.1118 46.1564 28.8458 45.2805 29.9196C44.7079 30.5961 44.2288 31.2345 43.8431 31.8348C43.4563 32.4238 43.0424 33.0842 42.6014 33.8161C42.1705 34.5355 41.8482 35.0263 41.6343 35.2885C41.4306 35.5382 41.2098 35.6752 40.9717 35.6994C40.609 35.7362 40.2361 35.3904 39.8529 34.662C39.4698 33.9337 39.227 33.0651 39.1246 32.0563C39.0613 31.4329 39.0798 30.9385 39.1801 30.5734C39.2918 30.207 39.5245 29.6795 39.8783 28.9908C40.5384 27.7099 41.1237 26.763 41.634 26.15C42.1432 25.5257 42.6585 25.1871 43.1799 25.1342C43.5427 25.0973 43.838 25.1303 44.0661 25.2331C44.3054 25.3348 44.4383 25.516 44.4648 25.7767C44.4763 25.8901 44.4544 26.0125 44.399 26.1441C44.3437 26.2757 44.2759 26.3971 44.1955 26.5083C44.1266 26.6184 43.971 26.8346 43.7289 27.1569C42.1394 29.3224 41.3745 30.6998 41.4344 31.2892C41.4678 31.618 41.5921 31.7714 41.8075 31.7495C41.9435 31.7357 42.1823 31.4939 42.524 31.024C42.8758 30.5417 43.3221 29.918 43.8629 29.1531C44.4138 28.3757 45.0695 27.559 45.83 26.7031C46.6019 25.846 47.49 25.0057 48.4943 24.1823C49.0525 23.7019 49.5299 23.4416 49.9266 23.4013C50.108 23.3829 50.309 23.6144 50.5297 24.0959C50.7617 24.5762 50.9035 25.0714 50.9553 25.5815C50.9807 25.8309 50.7755 26.2353 50.3399 26.7949ZM56.9824 20.3144L57.7135 20.2401C58.205 19.1023 58.6719 18.2876 59.1144 17.7961C59.5558 17.2932 60.0882 17.0101 60.7116 16.9468C61.335 16.8835 61.6611 16.9935 61.6899 17.2769C61.7037 17.4129 61.4974 17.8061 61.071 18.4563C60.6446 19.1066 60.3274 19.6484 60.1195 20.0817C60.5095 20.0879 60.8536 20.0931 61.1517 20.0972C61.4612 20.1001 61.7021 20.1043 61.8745 20.1097C61.3504 21.3768 60.6648 22.6889 59.8177 24.0461C59.4981 24.0556 59.23 24.0657 59.0134 24.0762C58.7958 24.0754 58.573 24.0808 58.3452 24.0925C58.1275 24.0917 57.8588 24.0961 57.5392 24.1057C57.0272 25.1539 56.6012 26.0904 56.2612 26.9151C55.9314 27.7273 55.686 28.468 55.5249 29.1371C55.3751 29.8051 55.3296 30.4281 55.3883 31.0062C55.4677 31.7883 55.8191 32.1477 56.4425 32.0844C56.8733 32.0407 57.4113 31.757 58.0567 31.2334C58.7123 30.6973 59.5755 29.8939 60.6463 28.8232L60.762 29.9624C58.0388 33.5943 55.9461 35.4844 54.4839 35.6329C53.9738 35.6847 53.5399 35.5283 53.1823 35.1639C52.8359 34.7982 52.6311 34.3037 52.5678 33.6802C52.5252 33.2609 52.5596 32.7535 52.6709 32.1581C52.7936 31.5616 53.0224 30.6566 53.3572 29.4431C53.2123 29.5952 53.0731 29.7468 52.9396 29.8978C52.8162 30.0363 52.698 30.1685 52.5848 30.2945C52.4818 30.408 52.3686 30.534 52.2453 30.6725C52.1207 30.7997 51.9968 30.9325 51.8734 31.071L51.7543 29.8979C52.8432 28.7795 54.1049 26.8821 55.5395 24.2056C55.3683 24.2115 55.2091 24.222 55.0617 24.237C54.9132 24.2406 54.7369 24.2528 54.5329 24.2735C53.8642 24.3414 53.37 24.4373 53.0505 24.5614C52.9179 24.6092 52.7916 24.6621 52.6715 24.7201C52.5616 24.7656 52.484 24.7907 52.4387 24.7953C52.3933 24.7999 52.3672 24.7682 52.3603 24.7002C52.3223 24.3261 52.4977 23.7415 52.8865 22.9462C53.1961 22.2734 53.4997 21.7674 53.7974 21.4279C54.1063 21.0874 54.4937 20.8419 54.9594 20.6916C55.4353 20.5287 56.1096 20.403 56.9824 20.3144ZM71.5449 27.7167L71.6606 28.8558C70.9815 29.6119 70.4268 30.1263 69.9964 30.399C69.566 30.6717 68.9235 30.8286 68.0688 30.8696C66.7724 32.7648 65.5632 33.7693 64.4411 33.8833C63.8063 33.9477 63.2069 33.7967 62.6429 33.4303C62.0789 33.0638 61.6014 32.534 61.2104 31.8408C60.8307 31.1464 60.5954 30.3515 60.5045 29.456C60.4308 28.7306 60.5871 27.9016 60.9734 26.9692C61.3711 26.0356 61.911 25.1505 62.5934 24.3139C63.2859 23.4649 64.0449 22.7637 64.8705 22.2104C65.695 21.6457 66.4813 21.3253 67.2294 21.2494C67.7621 21.1953 68.1902 21.2377 68.5135 21.3767C68.8356 21.5043 69.0117 21.7155 69.0416 22.0102C69.0646 22.2369 68.9607 22.5108 68.7299 22.832C69.1699 22.8789 69.4801 23.002 69.6607 23.2013C69.8401 23.3892 69.958 23.7609 70.0144 24.3163C70.0696 24.8603 70.0089 25.5593 69.8322 26.4133C69.6669 27.266 69.4 28.0776 69.0316 28.8479L69.3687 29.1229L69.6237 29.097C69.8164 29.0774 69.9988 29.0131 70.171 28.904C70.3533 28.7824 70.513 28.6631 70.65 28.5462C70.7858 28.4178 71.0841 28.1413 71.5449 27.7167ZM67.5884 23.6006C66.7051 24.2629 65.9527 24.8604 65.3311 25.393C64.7084 25.9143 64.1888 26.4366 63.7724 26.9598C63.3549 27.4718 63.0909 27.9738 62.9806 28.466C62.8261 29.7643 62.7541 30.4644 62.7644 30.5664C62.8404 31.3145 63.3998 31.6357 64.4426 31.5298C64.93 31.4803 65.7035 30.978 66.7632 30.023C66.5164 29.5098 66.3683 29.0095 66.3188 28.5221C66.2463 27.808 66.32 27.0676 66.5399 26.3009C66.7586 25.5229 67.1081 24.6228 67.5884 23.6006ZM71.5117 28.2354L71.4702 27.8273C74.0816 24.4473 75.8743 22.0837 76.8484 20.7365C76.9562 19.317 77.4862 18.5589 78.4383 18.4622C78.6763 18.4381 78.9383 18.4802 79.2241 18.5886L79.3589 18.9013C79.3274 19.0419 79.3243 19.2369 79.3496 19.4863C79.3715 19.7016 79.4917 20.096 79.7102 20.6693C79.9389 21.2301 80.1188 21.7042 80.2497 22.0918C80.3807 22.4793 80.4715 22.9224 80.5221 23.4211C80.5981 24.1692 80.5012 24.9063 80.2313 25.6322C79.9603 26.3469 79.534 27.0544 78.9524 27.7547C78.3696 28.4437 77.6015 29.1688 76.6481 29.9298C77.063 29.9563 77.3895 29.9575 77.6276 29.9334C78.0923 29.8862 78.5795 29.7222 79.0893 29.4414C79.6092 29.1481 80.1273 28.7806 80.6435 28.3388C81.17 27.8846 81.7756 27.3077 82.4605 26.6083L82.5761 27.7475C81.2691 29.3117 80.0806 30.5203 79.0106 31.3733C77.9394 32.215 76.9901 32.6778 76.1626 32.7618C75.0971 32.87 74.065 32.5167 73.0661 31.702C72.4781 31.212 72.0908 30.7246 71.9041 30.2397C71.7288 29.7536 71.598 29.0855 71.5117 28.2354ZM77.5894 24.9901L77.0314 22.5388C76.4092 23.4036 75.0621 25.0806 72.9901 27.5699C73.6852 27.6482 74.17 27.7994 74.4447 28.0234C74.7194 28.2475 75.1197 28.6935 75.6456 29.3616C76.3842 28.966 76.9298 28.4754 77.2827 27.8899C77.6457 27.2919 77.7788 26.5168 77.6821 25.5647C77.6706 25.4513 77.6546 25.3499 77.6341 25.2604C77.6249 25.1697 77.61 25.0796 77.5894 24.9901ZM95.1307 25.3562L95.2395 26.4274C94.3558 27.5363 93.584 28.4507 92.9241 29.1704C92.2745 29.8777 91.6943 30.4233 91.1836 30.8072C90.6843 31.19 90.2475 31.4004 89.8735 31.4384C88.9894 31.5282 88.4944 31.0517 88.3885 30.0089C88.3033 29.1701 88.4769 28.1733 88.9094 27.0186C89.352 25.8514 90.0131 24.4673 90.8927 22.8663C90.4114 23.2015 89.963 23.5791 89.5476 23.9992C89.131 24.408 88.7678 24.8342 88.4578 25.2779C88.1467 25.7103 87.8865 26.0803 87.6773 26.3879C87.0245 27.2901 86.4024 28.2122 85.8109 29.154C85.2183 30.0845 84.8162 30.6922 84.6046 30.9771C84.3931 31.262 84.1796 31.4153 83.9642 31.4372C83.0801 31.527 82.5276 30.4837 82.3066 28.3074C82.2341 27.5933 82.2618 26.7946 82.3897 25.9112C82.5176 25.0279 82.98 23.8301 83.7769 22.3177C85.459 19.1465 86.9073 16.5488 88.1218 14.5245C89.3465 12.4877 90.3746 10.9403 91.2062 9.8825C92.0367 8.81332 92.6118 8.27395 92.9315 8.2644C93.3317 8.25812 93.6571 8.30524 93.9078 8.40575C94.1698 8.50512 94.3089 8.63415 94.325 8.79284C94.3538 9.07621 94.2032 9.56675 93.8732 10.2645C93.5534 10.9497 92.9877 12.0321 92.1759 13.5116C91.2929 15.0785 90.6666 16.1843 90.2968 16.8287C89.9259 17.4619 89.3656 18.3719 88.6158 19.5589C87.8761 20.7334 87.193 21.7876 86.5664 22.7216C85.9499 23.643 85.2389 24.6485 84.4334 25.7381L84.6406 27.7784C85.988 25.9353 87.1624 24.4189 88.1639 23.2293C89.1654 22.0397 90.0239 21.1337 90.7395 20.5114C91.4538 19.8777 91.9924 19.5424 92.3551 19.5056C92.6952 19.4711 93.0332 19.6429 93.3694 20.021C93.7044 20.3878 93.8851 20.7016 93.9116 20.9623C93.9231 21.0756 93.8808 21.2231 93.7847 21.4046C93.0676 22.4623 92.4981 23.3389 92.0763 24.0345C91.6647 24.7176 91.3544 25.3274 91.1455 25.8639C90.9354 26.3891 90.8488 26.8331 90.8856 27.1958C90.9397 27.7286 91.2218 27.969 91.7319 27.9173C92.276 27.862 93.4089 27.0083 95.1307 25.3562ZM118.231 26.8414L111.503 24.3638C110.098 26.7625 109.335 28.3287 109.215 29.0623C109.131 29.5862 108.868 30.0424 108.426 30.4307C107.997 30.8293 107.681 31.039 107.477 31.0597C106.898 31.1184 106.587 30.9267 106.542 30.4846C106.517 30.2353 106.784 29.4866 107.345 28.2387C107.915 26.9784 108.72 25.4824 109.758 23.7508C109.061 23.5467 108.629 23.4074 108.461 23.3328C108.293 23.2582 108.214 23.0945 108.222 22.8417C108.23 22.5775 108.388 22.155 108.695 21.5741C108.964 21.0658 109.17 20.7243 109.312 20.5495C109.454 20.3633 109.628 20.214 109.834 20.1014C110.039 19.9776 110.259 19.8865 110.493 19.8284C110.728 19.7702 111.388 19.6173 112.474 19.3696C113.246 18.0659 114.082 16.6583 114.982 15.1469C115.894 13.6343 116.604 12.457 117.114 11.6151C115.359 12.0338 114.138 12.3582 113.451 12.5882C112.718 12.8115 112.102 13.0001 111.602 13.1539C111.112 13.2952 110.77 13.4159 110.574 13.516C110.377 13.6047 110.285 13.7171 110.299 13.8531C110.311 13.9778 110.445 14.0501 110.699 14.0701C110.953 14.0902 111.267 14.0812 111.641 14.0432C112.026 14.0041 112.323 13.9911 112.53 14.0044C112.748 14.0052 112.862 14.0566 112.872 14.1587C112.884 14.272 112.749 14.3544 112.468 14.4058C112.197 14.4448 111.424 14.5576 110.149 14.7444C109.426 14.8407 108.816 14.9255 108.319 14.9988C107.834 15.071 107.495 15.1168 107.303 15.1364C107.042 15.1629 106.83 15.1043 106.666 14.9605C106.503 14.8168 106.408 14.6146 106.382 14.3539C106.362 14.1612 106.433 13.7932 106.596 13.2499C106.758 12.7066 107.011 12.1485 107.353 11.5755C107.696 11.0025 108.107 10.5427 108.588 10.1962C109.13 9.78611 109.99 9.34381 111.167 8.86928C112.354 8.38227 113.679 7.95569 115.142 7.58956C116.616 7.21095 118.083 6.94741 119.546 6.79894C120.43 6.70917 121.296 6.67271 122.145 6.68956C123.006 6.70526 123.784 6.75226 124.479 6.83056C125.185 6.90771 125.744 6.99982 126.156 7.10689C127.222 7.34221 128.062 7.77796 128.676 8.41415C129.302 9.04919 129.657 9.78044 129.741 10.6079C129.823 11.4127 129.761 12.2148 129.556 13.0144C129.361 13.8014 129.008 14.553 128.496 15.2692C127.995 15.9728 127.363 16.5695 126.6 17.0593C125.977 17.4661 125.014 17.9131 123.712 18.4003C122.411 18.8874 120.827 19.3632 118.962 19.8274C117.096 20.2916 115.003 20.7046 112.68 21.0664C114.488 21.5013 116.177 21.9539 117.748 22.4242C119.329 22.8821 120.66 23.3023 121.741 23.685C122.832 24.0552 123.688 24.3634 124.309 24.6096C125.18 24.9563 125.75 25.2134 126.019 25.3807C126.288 25.5481 126.477 25.7808 126.588 26.0788C126.698 26.3768 126.789 26.8771 126.86 27.5799C126.941 28.3733 126.949 28.9623 126.885 29.3467C126.834 29.7413 126.649 29.9547 126.332 29.9869C126.23 29.9973 125.946 29.9115 125.481 29.7297C125.029 29.5581 124.395 29.2961 123.581 28.9436C122.767 28.6025 122.026 28.2998 121.358 28.0355C120.7 27.7587 119.658 27.3607 118.231 26.8414ZM118.168 11.3363C118.188 11.4145 118.201 11.4876 118.208 11.5556C118.226 11.6224 118.241 11.7182 118.254 11.8429C118.286 12.1603 118.222 12.539 118.06 12.9791C117.909 13.4068 117.697 13.8577 117.425 14.332C117.162 14.7938 116.761 15.4644 116.22 16.3438C115.69 17.2108 115.199 18.0107 114.746 18.7438C117.08 18.0487 119.065 17.4063 120.7 16.8166C122.346 16.2257 123.692 15.6653 124.738 15.1354C125.782 14.5942 126.553 14.0636 127.05 13.5436C127.557 13.0112 127.785 12.4899 127.733 11.9798C127.675 11.4131 127.052 11.0297 125.864 10.8297C124.686 10.6173 123.264 10.5956 121.597 10.7648C121.257 10.7993 120.896 10.8475 120.513 10.9093C120.14 10.9586 119.69 11.0386 119.163 11.1494C118.646 11.2477 118.314 11.31 118.168 11.3363ZM138.704 20.8976L138.82 22.0368C138.141 22.7928 137.586 23.3072 137.156 23.58C136.726 23.8527 136.083 24.0096 135.228 24.0505C133.932 25.9457 132.723 26.9503 131.601 27.0642C130.966 27.1287 130.367 26.9777 129.803 26.6112C129.239 26.2448 128.761 25.715 128.37 25.0217C127.99 24.3274 127.755 23.5325 127.664 22.637C127.59 21.9116 127.747 21.0826 128.133 20.1502C128.531 19.2165 129.071 18.3315 129.753 17.4949C130.445 16.6459 131.205 15.9447 132.03 15.3913C132.855 14.8266 133.641 14.5063 134.389 14.4304C134.922 14.3763 135.35 14.4187 135.673 14.5577C135.995 14.6853 136.171 14.8964 136.201 15.1911C136.224 15.4178 136.12 15.6918 135.89 16.013C136.329 16.0599 136.64 16.183 136.82 16.3823C137 16.5702 137.118 16.9418 137.174 17.4972C137.229 18.0413 137.168 18.7403 136.992 19.5942C136.826 20.447 136.56 21.2586 136.191 22.0289L136.528 22.3039L136.783 22.278C136.976 22.2584 137.158 22.1941 137.331 22.085C137.513 21.9634 137.673 21.8441 137.81 21.7271C137.945 21.5988 138.244 21.3223 138.704 20.8976ZM134.748 16.7816C133.865 17.4439 133.112 18.0413 132.491 18.574C131.868 19.0953 131.348 19.6176 130.932 20.1408C130.514 20.6527 130.251 21.1548 130.14 21.647C129.986 22.9452 129.914 23.6454 129.924 23.7474C130 24.4955 130.559 24.8166 131.602 24.7107C132.09 24.6613 132.863 24.159 133.923 23.204C133.676 22.6908 133.528 22.1905 133.478 21.7031C133.406 20.989 133.48 20.2486 133.699 19.4819C133.918 18.7039 134.268 17.8038 134.748 16.7816ZM148.93 19.9281L149.046 21.0673C147.954 22.3806 147.056 23.4051 146.351 24.1408C145.659 24.8753 144.996 25.4579 144.365 25.8885C143.744 26.318 143.116 26.5649 142.482 26.6294C141.858 26.6927 141.261 26.5071 140.69 26.0727C140.118 25.6269 139.644 25.0222 139.269 24.2587C138.893 23.4838 138.659 22.6487 138.568 21.7532C138.49 20.9824 138.59 20.2794 138.869 19.6441C139.148 19.0088 139.727 18.1656 140.605 17.1145C141.646 15.8636 142.629 14.8821 143.553 14.1699C144.487 13.4452 145.237 13.054 145.804 12.9965C146.212 12.9551 146.572 13.0617 146.884 13.3163C147.196 13.5709 147.374 13.9135 147.418 14.3443C147.455 14.707 147.32 15.2417 147.014 15.9484C146.708 16.6552 146.348 17.2815 145.934 17.8274C145.519 18.362 145.175 18.6431 144.903 18.6708C144.608 18.7007 144.445 18.557 144.412 18.2396C144.415 18.1477 144.412 18.0622 144.404 17.9828C144.407 17.9023 144.404 17.8224 144.396 17.743C144.383 17.607 144.324 17.5385 144.221 17.5376C144.128 17.5241 144.019 17.5753 143.893 17.6911C142.84 18.5996 142.121 19.2395 141.735 19.6108C141.347 19.9708 141.046 20.3278 140.83 20.6818C140.625 21.0347 140.541 21.3925 140.578 21.7552C140.646 22.424 140.917 22.9462 141.39 23.3219C141.863 23.6975 142.446 23.8503 143.137 23.7801C143.851 23.7075 144.679 23.3486 145.621 22.7033C146.574 22.0454 147.677 21.1204 148.93 19.9281ZM161.678 18.5994L161.794 19.7385C160.675 21.3523 159.724 22.5883 158.941 23.4466C158.157 24.2935 157.475 24.7463 156.897 24.805C156.342 24.8614 155.821 24.7482 155.334 24.4655C154.859 24.1817 154.41 23.7692 153.989 23.2279C153.579 22.6855 153.078 21.9233 152.485 20.9413C151.98 21.7141 151.526 22.4358 151.125 23.1064C150.722 23.7657 150.441 24.2066 150.28 24.429C150.119 24.6514 149.965 24.7701 149.818 24.7851C149.512 24.8162 149.271 24.6459 149.096 24.2744C148.92 23.8914 148.794 23.3259 148.718 22.5778C148.614 21.5577 148.634 20.5651 148.776 19.6001C148.929 18.6227 149.187 17.6632 149.549 16.7217C149.923 15.7791 150.414 14.7558 151.024 13.6518C151.643 12.5353 152.343 11.3649 153.124 10.1404C154.2 8.45077 155.136 7.0674 155.932 5.99034C156.726 4.90194 157.426 4.075 158.033 3.50951C158.65 2.93154 159.18 2.62011 159.622 2.57522C160.166 2.51998 160.463 2.73606 160.512 3.22346C160.555 3.64286 159.705 5.25793 157.964 8.06867C156.221 10.8681 153.657 14.7129 150.271 19.603L150.42 21.0652C152.713 18.0495 154.574 15.7935 156.002 14.2972C157.442 12.7997 158.593 12.0072 159.454 11.9198C159.805 11.8841 160.099 12.0661 160.334 12.466C160.568 12.8545 160.713 13.3208 160.768 13.8648C160.881 14.9757 160.509 16.0555 159.654 17.1043C158.797 18.1418 157.445 19.3727 155.597 20.7971C155.989 21.2727 156.327 21.6162 156.612 21.8278C156.896 22.028 157.236 22.108 157.633 22.0677C157.984 22.0321 158.352 21.8745 158.736 21.595C159.12 21.3155 159.503 20.9732 159.885 20.5679C160.279 20.1614 160.877 19.5052 161.678 18.5994ZM155.05 20.1484C155.452 19.8213 155.941 19.3308 156.516 18.6769C157.101 18.0106 157.588 17.337 157.977 16.6562C158.364 15.9641 158.536 15.4026 158.493 14.9719C158.474 14.7906 158.386 14.7079 158.227 14.724C157.796 14.7678 157.096 15.2569 156.126 16.1914C155.167 17.1247 154.254 18.2881 153.388 19.6816C153.819 19.6378 154.373 19.7934 155.05 20.1484ZM161.557 19.0927L161.515 18.6846C164.126 15.3046 165.919 12.941 166.893 11.5939C167.001 10.1743 167.531 9.41624 168.483 9.31957C168.721 9.2954 168.983 9.33751 169.269 9.44591L169.404 9.7586C169.372 9.89922 169.369 10.0942 169.394 10.3436C169.416 10.559 169.537 10.9533 169.755 11.5266C169.984 12.0874 170.164 12.5616 170.295 12.9491C170.426 13.3366 170.516 13.7797 170.567 14.2785C170.643 15.0266 170.546 15.7636 170.276 16.4896C170.005 17.2042 169.579 17.9117 168.997 18.612C168.414 19.3011 167.646 20.0261 166.693 20.7871C167.108 20.8137 167.434 20.8149 167.672 20.7907C168.137 20.7435 168.624 20.5795 169.134 20.2987C169.654 20.0055 170.172 19.6379 170.688 19.1961C171.215 18.7419 171.82 18.1651 172.505 17.4657L172.621 18.6048C171.314 20.169 170.125 21.3776 169.055 22.2306C167.984 23.0723 167.035 23.5352 166.207 23.6192C165.142 23.7274 164.11 23.3741 163.111 22.5594C162.523 22.0694 162.136 21.5819 161.949 21.097C161.774 20.6109 161.643 19.9428 161.557 19.0927ZM167.634 15.8474L167.076 13.3961C166.454 14.2609 165.107 15.938 163.035 18.4272C163.73 18.5055 164.215 18.6567 164.49 18.8808C164.764 19.1048 165.165 19.5509 165.69 20.2189C166.429 19.8233 166.975 19.3327 167.328 18.7472C167.691 18.1492 167.824 17.3742 167.727 16.422C167.715 16.3087 167.699 16.2072 167.679 16.1177C167.67 16.027 167.655 15.9369 167.634 15.8474Z" fill="black"/>
</svg>
