<svg width="32" height="32" viewBox="0 0 32 32" fill="none" xmlns="http://www.w3.org/2000/svg">
<path d="M16.0001 5.3335C17.1401 5.3335 18.3094 5.36283 19.4427 5.41083L20.7814 5.47483L22.0627 5.55083L23.2627 5.63216L24.3587 5.7175C25.5483 5.80802 26.6678 6.31541 27.52 7.1503C28.3722 7.98519 28.9025 9.09402 29.0174 10.2815L29.0707 10.8482L29.1707 12.0615C29.2641 13.3188 29.3334 14.6895 29.3334 16.0002C29.3334 17.3108 29.2641 18.6815 29.1707 19.9388L29.0707 21.1522L29.0174 21.7188C28.9024 22.9065 28.372 24.0155 27.5195 24.8504C26.667 25.6853 25.5472 26.1926 24.3574 26.2828L23.2641 26.3668L22.0641 26.4495L20.7814 26.5255L19.4427 26.5895C18.2959 26.6392 17.148 26.665 16.0001 26.6668C14.8521 26.665 13.7043 26.6392 12.5574 26.5895L11.2187 26.5255L9.93741 26.4495L8.73741 26.3668L7.64141 26.2828C6.45183 26.1923 5.33235 25.6849 4.48014 24.85C3.62793 24.0151 3.09767 22.9063 2.98275 21.7188L2.92941 21.1522L2.82941 19.9388C2.72786 18.6283 2.6736 17.3146 2.66675 16.0002C2.66675 14.6895 2.73608 13.3188 2.82941 12.0615L2.92941 10.8482L2.98275 10.2815C3.09762 9.09423 3.6277 7.98557 4.47963 7.1507C5.33157 6.31584 6.45074 5.80832 7.64008 5.7175L8.73475 5.63216L9.93475 5.55083L11.2174 5.47483L12.5561 5.41083C13.7034 5.36113 14.8517 5.33535 16.0001 5.3335ZM16.0001 8.00016C14.9001 8.00016 13.7681 8.0295 12.6667 8.07483L11.3627 8.1375L10.1107 8.21083L8.93475 8.29083L7.85741 8.37483C7.29101 8.41448 6.757 8.65367 6.3503 9.04987C5.94359 9.44608 5.69053 9.97365 5.63608 10.5388C5.48008 12.1508 5.33341 14.1575 5.33341 16.0002C5.33341 17.8428 5.48008 19.8495 5.63608 21.4615C5.74941 22.6242 6.67208 23.5282 7.85741 23.6255L8.93475 23.7082L10.1107 23.7882L11.3627 23.8628L12.6667 23.9255C13.7681 23.9708 14.9001 24.0002 16.0001 24.0002C17.1001 24.0002 18.2321 23.9708 19.3334 23.9255L20.6374 23.8628L21.8894 23.7895L23.0654 23.7095L24.1427 23.6255C24.7092 23.5858 25.2432 23.3467 25.6499 22.9505C26.0566 22.5542 26.3096 22.0267 26.3641 21.4615C26.5201 19.8495 26.6667 17.8428 26.6667 16.0002C26.6667 14.1575 26.5201 12.1508 26.3641 10.5388C26.3096 9.97365 26.0566 9.44608 25.6499 9.04987C25.2432 8.65367 24.7092 8.41448 24.1427 8.37483L23.0654 8.29216L21.8894 8.21216L20.6374 8.1375L19.3334 8.07483C18.2229 8.02717 17.1116 8.00227 16.0001 8.00016ZM13.3334 12.7668C13.3333 12.6365 13.3651 12.5082 13.4259 12.3929C13.4867 12.2777 13.5748 12.179 13.6824 12.1055C13.7901 12.0321 13.914 11.986 14.0435 11.9714C14.173 11.9567 14.3041 11.9739 14.4254 12.0215L14.5334 12.0748L20.1334 15.3068C20.2449 15.3712 20.3393 15.4615 20.4084 15.5701C20.4776 15.6787 20.5195 15.8024 20.5306 15.9306C20.5417 16.0589 20.5217 16.1879 20.4723 16.3068C20.4229 16.4257 20.3455 16.5309 20.2467 16.6135L20.1334 16.6935L14.5334 19.9268C14.4206 19.9922 14.2934 20.0289 14.1631 20.0339C14.0328 20.0389 13.9033 20.012 13.7858 19.9555C13.6682 19.8989 13.5663 19.8145 13.4889 19.7096C13.4114 19.6047 13.3608 19.4825 13.3414 19.3535L13.3334 19.2335V12.7668Z" fill="black"/>
</svg>
